<?xml version="1.0" standalone="no"?>
<!DOCTYPE svg PUBLIC "-//W3C//DTD SVG 20010904//EN"
 "http://www.w3.org/TR/2001/REC-SVG-20010904/DTD/svg10.dtd">
<svg version="1.0" xmlns="http://www.w3.org/2000/svg"
 width="16.000000pt" height="16.000000pt" viewBox="0 0 16.000000 16.000000"
 preserveAspectRatio="xMidYMid meet">
<metadata>
Created by potrace 1.11, written by Peter Selinger 2001-2013
</metadata>
<g transform="translate(0.000000,16.000000) scale(0.002667,-0.002667)"
fill="#000000" stroke="none">
<path d="M2980 5589 c-30 -16 -47 -18 -115 -13 -121 9 -324 4 -353 -9 -15 -6
-31 -17 -35 -24 -5 -8 -12 -11 -16 -8 -5 2 -35 -4 -67 -16 -33 -11 -86 -29
-119 -40 -33 -12 -64 -25 -69 -30 -6 -5 -16 -9 -23 -9 -7 0 -48 -25 -90 -55
-43 -30 -94 -58 -113 -61 -45 -8 -72 -23 -65 -34 3 -6 -1 -7 -9 -4 -16 6 -326
-295 -326 -317 0 -7 -12 -26 -27 -42 -16 -17 -22 -27 -15 -23 6 4 12 2 12 -4
0 -6 -10 -15 -22 -21 -58 -26 -155 -113 -138 -124 13 -8 -16 -58 -64 -112 -59
-66 -128 -183 -108 -183 5 0 14 16 22 35 14 36 50 77 50 58 0 -6 -7 -16 -15
-23 -8 -7 -15 -16 -15 -21 0 -5 -14 -39 -32 -76 -17 -38 -32 -72 -33 -78 -1
-5 -9 -27 -18 -47 -19 -42 -21 -58 -7 -58 5 0 3 -21 -5 -47 -15 -49 -21 -132
-8 -120 8 9 35 -52 28 -64 -3 -4 -8 -50 -11 -101 -2 -51 -7 -109 -9 -129 -3
-20 -2 -38 1 -41 10 -10 13 -143 6 -216 -5 -40 -6 -75 -3 -78 3 -3 7 -26 8
-52 2 -25 8 -49 14 -52 13 -9 16 -79 5 -157 -4 -34 -4 -68 0 -75 10 -15 6 -58
-6 -73 -10 -12 -8 -34 3 -52 5 -8 3 -13 -6 -13 -19 0 -27 -31 -27 -102 0 -64
27 -146 84 -254 20 -37 36 -71 36 -75 0 -4 5 -20 11 -36 8 -22 12 -24 19 -13
8 13 10 12 10 -2 0 -10 5 -18 11 -18 5 0 7 -5 4 -10 -5 -8 -11 -7 -21 1 -14
12 -20 -2 -7 -15 5 -4 12 -26 18 -49 9 -39 12 -42 40 -39 17 2 32 8 33 13 2 5
15 9 29 9 13 0 23 3 21 8 -3 4 -10 22 -17 40 -10 25 -16 30 -22 20 -7 -11 -9
-10 -9 1 0 8 10 26 23 39 16 19 18 24 5 19 -19 -7 -19 17 2 36 8 7 10 7 7 1
-4 -7 -1 -17 7 -23 7 -6 11 -22 9 -35 -6 -27 24 -50 51 -40 9 3 16 5 16 3 0
-2 4 -18 9 -36 7 -24 6 -36 -6 -50 -8 -10 -12 -12 -8 -5 4 7 0 12 -10 12 -12
0 -15 -5 -11 -16 8 -20 -19 -50 -30 -32 -5 7 -10 3 -16 -13 -7 -17 -11 -20
-17 -10 -7 10 -12 10 -28 0 -21 -13 -19 -27 13 -105 13 -31 60 -84 74 -84 5 0
13 -14 19 -31 6 -17 15 -28 20 -25 5 3 12 -11 16 -32 4 -20 15 -51 25 -68 11
-17 30 -90 44 -175 14 -79 30 -160 36 -179 16 -55 12 -74 -16 -87 -15 -7 -31
-10 -35 -7 -5 3 -6 -2 -3 -10 5 -12 -4 -17 -35 -22 -23 -4 -44 -11 -47 -15 -3
-5 -16 -9 -29 -9 -18 0 -23 -4 -18 -16 5 -13 2 -15 -17 -9 -20 6 -22 4 -16
-11 6 -18 5 -18 -8 -1 -12 16 -14 16 -20 1 -4 -9 -12 -14 -21 -10 -13 5 -14 2
-4 -15 8 -16 8 -20 0 -15 -6 4 -18 0 -27 -8 -20 -20 -21 -121 -1 -166 3 -8 8
-26 9 -40 2 -14 7 -31 12 -39 5 -8 4 -16 -4 -21 -9 -5 -9 -9 -1 -14 6 -4 11
-14 11 -22 0 -8 7 -31 17 -52 9 -20 15 -40 15 -44 -1 -5 2 -8 7 -8 5 0 13 -15
16 -32 4 -18 11 -37 15 -43 5 -5 9 -14 10 -20 1 -5 7 -21 12 -35 5 -14 11 -35
12 -48 2 -12 6 -25 9 -29 4 -3 7 -14 7 -24 0 -9 6 -30 14 -46 19 -37 114 -294
133 -358 8 -27 24 -68 35 -90 64 -126 102 -195 110 -195 4 0 8 -5 8 -11 0 -6
6 -17 14 -25 12 -11 54 -14 211 -14 181 0 197 1 191 17 -6 16 -6 16 12 0 20
-19 37 -23 27 -7 -3 6 -2 10 4 10 5 0 12 -4 15 -9 4 -5 143 -10 322 -10 190
-1 313 2 310 8 -7 11 27 9 35 -3 4 -5 12 -7 20 -4 8 3 5 11 -11 26 -19 18 -20
22 -7 22 9 0 21 -9 27 -19 14 -28 51 -37 62 -17 5 9 13 14 18 11 12 -8 -2 38
-16 52 -18 19 -32 16 -45 -8 -8 -16 -13 -18 -19 -9 -4 7 -12 10 -18 6 -6 -3
-5 4 1 19 12 24 37 35 37 15 0 -5 -5 -10 -12 -10 -6 0 -8 -3 -5 -6 4 -4 14 -1
22 6 15 12 15 14 0 22 -8 5 -13 14 -9 20 4 6 -1 8 -15 3 -20 -6 -21 -5 -9 14
7 12 21 21 30 21 10 0 18 5 18 10 0 6 5 10 11 10 8 0 7 -5 -1 -15 -7 -9 -10
-19 -6 -22 4 -4 10 -3 14 2 23 33 40 36 64 13 34 -33 60 -77 52 -89 -4 -6 -1
-15 6 -19 10 -6 10 -12 -4 -25 -20 -21 -34 -12 -16 10 10 12 9 15 -6 16 -11 0
-14 3 -6 6 14 6 16 23 2 23 -8 0 -30 -60 -30 -82 0 -14 37 -8 50 7 16 20 34
19 26 -1 -5 -14 11 -15 152 -11 86 3 162 5 167 5 6 0 124 -2 263 -5 l254 -4
-7 23 c-4 16 -3 19 3 9 11 -15 27 2 17 19 -11 18 5 49 22 43 12 -5 14 -3 7 8
-14 23 -13 38 2 32 10 -4 12 0 7 13 -5 12 -3 15 6 9 10 -5 11 -2 6 14 -4 13
-2 21 6 21 8 0 9 11 5 33 -4 20 -3 27 3 18 6 -9 10 -10 16 -2 4 7 1 19 -7 28
-11 14 -10 15 12 8 23 -7 23 -7 7 9 -19 20 -22 31 -6 20 9 -5 10 1 5 20 -5 20
-3 26 9 26 12 0 15 6 10 20 -5 14 -2 20 10 20 12 0 15 6 10 20 -4 12 -1 28 6
36 6 8 9 17 5 21 -3 3 1 14 10 24 10 11 12 19 5 24 -6 3 -11 1 -11 -6 0 -7 -2
-10 -5 -7 -3 2 4 24 16 47 11 23 17 50 14 60 -3 11 1 26 10 35 13 12 14 20 4
37 -6 12 -7 24 -3 28 11 8 12 52 1 68 -5 8 -4 11 5 8 8 -3 14 3 14 17 1 13 5
33 9 46 6 17 3 22 -9 22 -22 0 -20 17 3 23 12 3 19 13 19 31 0 14 -5 23 -10
20 -6 -4 -5 3 1 14 8 16 8 24 -4 36 -11 10 -11 16 -3 18 7 3 12 21 11 41 -1
20 4 37 9 37 6 0 5 6 -2 15 -7 8 -16 12 -21 9 -5 -3 -9 -1 -9 5 0 5 6 12 13
15 10 5 10 7 0 12 -20 9 -15 24 5 17 15 -6 15 -5 3 11 -8 10 -14 34 -13 55 2
26 -4 46 -18 64 -12 15 -19 31 -15 37 3 5 1 18 -5 27 -11 17 -11 17 -6 1 3
-10 1 -18 -4 -18 -13 0 -13 16 1 42 8 15 8 19 0 14 -20 -13 -12 29 18 95 31
70 79 230 125 425 8 34 24 77 35 95 16 26 18 36 8 48 -10 12 -9 14 6 8 11 -4
24 0 34 13 10 11 22 20 29 20 16 0 104 96 104 113 0 8 7 17 15 21 8 3 15 14
15 24 0 11 9 31 21 46 11 14 18 30 14 35 -3 5 -1 12 4 15 11 7 41 133 41 171
0 22 26 99 60 180 42 98 58 220 40 301 -12 53 -45 130 -60 139 -9 6 -6 121 6
177 3 14 0 29 -5 33 -18 11 -12 23 14 29 20 5 24 10 17 24 -14 27 -24 132 -12
132 5 0 10 7 10 15 0 8 7 15 16 15 13 0 14 2 1 15 -20 19 -41 137 -26 146 8 5
8 8 1 10 -7 3 -13 54 -16 127 -3 68 -10 141 -16 161 -5 20 -7 53 -5 74 3 20 1
37 -4 37 -6 0 -7 24 -4 54 4 40 0 70 -17 122 -34 103 -89 215 -121 248 -16 16
-36 50 -45 75 -32 92 -70 153 -139 220 -65 63 -105 92 -147 105 -13 4 -18 16
-18 40 0 19 -5 47 -11 63 -8 22 -12 24 -19 13 -8 -13 -10 -12 -10 3 0 20 -11
22 -28 5 -9 -9 -12 -9 -12 2 0 9 -11 3 -29 -14 l-28 -27 -7 56 c-11 95 -26
119 -113 176 -43 28 -84 61 -92 74 -20 33 -82 65 -125 65 -24 0 -50 10 -80 32
-31 21 -58 32 -88 33 -61 4 -138 21 -151 34 -16 16 -27 13 -20 -5 5 -14 3 -15
-15 -5 -12 7 -22 18 -22 26 0 10 -11 15 -34 15 -37 0 -80 13 -142 41 -39 19
-71 17 -85 -4 -3 -4 -13 -1 -22 7 -8 9 -17 16 -19 15 -2 -1 -19 -10 -38 -20z
m755 -227 c-7 -8 -35 7 -35 18 0 6 7 6 20 -2 10 -7 17 -14 15 -16z m-1631 -31
c3 -5 -5 -11 -18 -13 -17 -4 -23 -1 -19 9 6 15 29 18 37 4z m-233 -112 c-13
-11 -27 -17 -30 -13 -7 7 28 34 43 34 6 -1 0 -10 -13 -21z m2287 -217 c4 -25
-1 -27 -28 -12 -12 6 -17 16 -13 26 8 22 37 13 41 -14z m212 -192 c0 -5 9 -19
20 -30 32 -32 23 -47 -10 -15 -30 28 -39 55 -20 55 6 0 10 -4 10 -10z m-1754
-116 c22 -15 24 -15 18 0 -3 9 -2 16 4 16 5 0 10 -16 9 -35 l-1 -35 -26 25
c-15 14 -29 22 -33 18 -4 -3 -7 1 -7 10 0 21 4 21 36 1z m269 -14 c3 -5 1 -10
-4 -10 -6 0 -11 5 -11 10 0 6 2 10 4 10 3 0 8 -4 11 -10z m-155 -31 c0 -5 9
-9 19 -9 11 0 23 -5 27 -11 4 -8 9 -8 17 0 7 7 15 7 25 -2 12 -9 16 -9 19 0 5
15 63 -11 76 -33 4 -8 15 -14 22 -14 8 0 15 -4 15 -10 0 -22 25 -8 26 15 1 14
-2 25 -7 25 -5 0 -9 5 -9 10 0 16 19 11 41 -11 17 -17 23 -19 30 -8 8 12 11
12 19 -1 9 -13 11 -13 20 0 6 9 6 18 0 24 -18 18 -11 33 14 29 15 -3 29 -16
37 -34 11 -29 47 -38 41 -11 -3 16 15 15 21 0 2 -7 8 -10 12 -5 5 4 3 13 -3
19 -7 7 -11 21 -11 33 1 14 3 15 6 4 2 -9 20 -23 39 -32 43 -21 44 -21 44 2 0
30 19 35 29 8 14 -36 61 -48 61 -15 0 6 -7 5 -17 -3 -17 -12 -17 -12 0 6 15
17 20 18 39 6 18 -11 20 -11 15 4 -4 9 -3 14 3 10 22 -13 51 -13 56 0 5 12 8
12 21 0 17 -17 33 -20 33 -4 0 5 5 7 11 3 8 -5 8 -9 -1 -14 -17 -10 5 -24 26
-16 8 3 12 2 9 -3 -3 -5 -1 -12 5 -16 5 -3 10 -2 10 4 0 6 20 9 50 7 27 -2 47
0 45 5 -3 4 0 11 6 15 8 4 9 3 5 -4 -4 -7 7 -17 28 -26 27 -11 34 -19 30 -33
-5 -16 -4 -16 8 -2 9 11 19 14 33 8 16 -6 17 -8 3 -8 -9 -1 -21 -7 -25 -14 -4
-8 -16 -18 -26 -24 -15 -8 -12 -10 19 -9 21 1 39 7 42 14 5 16 22 15 22 -1 0
-7 12 -14 27 -15 36 -3 49 -17 33 -37 -7 -8 -9 -15 -4 -15 5 0 2 -5 -6 -11
-11 -8 -12 -12 -2 -16 6 -2 12 -11 12 -20 0 -13 2 -13 15 1 8 8 15 20 15 26 0
8 6 8 21 0 23 -13 41 -4 19 10 -12 7 -12 12 0 35 15 28 33 28 38 -1 3 -16 1
-16 -7 -4 -10 13 -11 13 -11 0 1 -21 25 -51 35 -42 5 4 5 1 1 -6 -5 -7 -14
-11 -22 -8 -18 7 -18 -2 1 -20 8 -9 15 -11 15 -5 0 19 17 12 23 -9 4 -18 2
-20 -16 -14 -12 3 -28 11 -36 18 -11 9 -13 7 -6 -13 5 -18 4 -22 -5 -16 -9 5
-11 4 -6 -4 4 -6 16 -9 26 -6 10 3 21 1 25 -5 3 -5 -3 -10 -14 -10 -11 0 -22
-4 -26 -9 -6 -11 41 -8 52 2 3 4 11 7 16 7 6 0 0 -11 -13 -25 -26 -28 -33 -52
-19 -61 5 -3 9 2 9 10 0 40 18 54 58 48 33 -4 45 -22 15 -22 -15 0 -16 -2 -3
-10 12 -7 12 -12 2 -22 -17 -17 -15 -29 3 -22 8 4 15 13 15 22 0 11 3 13 11 5
7 -7 4 -21 -11 -48 -13 -23 -17 -41 -12 -49 12 -14 9 -146 -2 -165 -6 -10 -5
-12 2 -7 15 9 15 3 1 -28 -6 -13 -17 -22 -24 -20 -17 7 -29 -27 -13 -38 21
-13 31 -9 18 7 -10 12 -10 15 3 15 20 0 31 -31 15 -41 -9 -6 -8 -10 5 -15 25
-9 12 -22 -18 -16 -14 2 -23 7 -21 10 8 7 -14 32 -28 32 -6 0 -4 -5 4 -11 11
-8 12 -12 3 -16 -19 -7 13 -37 32 -29 8 3 17 1 20 -5 4 -5 10 -7 15 -4 5 3 8
-3 7 -14 -1 -19 -27 -18 -27 1 0 5 -6 8 -12 6 -12 -4 -17 -26 -19 -80 0 -10
-8 -18 -17 -18 -11 0 -13 -3 -6 -8 17 -11 26 -49 14 -57 -5 -3 -10 -11 -10
-16 0 -6 5 -7 10 -4 14 9 50 -4 50 -17 0 -6 -6 -6 -15 2 -12 10 -15 10 -15 -4
0 -25 -28 -19 -55 11 l-23 28 1 -27 c1 -14 5 -24 8 -22 4 2 12 -3 19 -11 15
-18 41 -19 59 -2 11 10 12 9 6 -3 -4 -8 -15 -24 -24 -35 -15 -18 -15 -19 2 -6
21 16 23 -1 3 -22 -9 -9 -11 -19 -5 -28 7 -11 11 -10 23 6 13 19 14 18 9 -8
-4 -19 -11 -27 -25 -27 -17 0 -18 -3 -8 -15 15 -17 10 -18 -24 -6 -18 7 -28 6
-36 -5 -7 -7 -22 -14 -34 -14 l-21 -1 22 -18 c11 -10 18 -22 15 -28 -10 -14
-51 -23 -58 -12 -3 5 0 9 5 9 6 0 11 10 10 23 0 14 -2 17 -6 7 -3 -8 -15 -25
-26 -37 -19 -22 -22 -22 -39 -6 -10 9 -18 12 -18 7 0 -5 -7 -1 -14 9 -16 20
-121 33 -132 16 -3 -5 -10 -6 -16 -3 -13 8 -68 11 -63 4 2 -3 -2 -13 -9 -23
-9 -12 -23 -16 -45 -13 -18 2 -38 -2 -44 -9 -10 -11 -15 -10 -30 3 -16 15 -17
15 -12 -1 5 -12 0 -18 -22 -22 -15 -4 -33 -8 -40 -10 -7 -2 -10 2 -7 10 8 20
-30 8 -60 -20 -16 -15 -33 -21 -46 -18 -11 3 -28 -1 -38 -10 -9 -8 -28 -17
-42 -21 -14 -3 -19 -3 -12 0 20 9 14 23 -10 21 -32 -2 -52 -29 -30 -40 11 -4
7 -5 -10 -2 -15 3 -30 0 -33 -5 -5 -8 -11 -7 -21 1 -12 9 -13 9 -9 -3 4 -9 -1
-18 -10 -22 -9 -3 -13 -11 -9 -17 3 -6 1 -15 -6 -19 -8 -5 -13 -21 -13 -37 0
-20 -6 -30 -16 -31 -31 -2 -136 11 -123 15 10 4 10 8 1 19 -6 7 -9 21 -5 29 3
9 0 15 -10 15 -9 0 -12 5 -8 12 4 6 -1 17 -11 25 -11 7 -13 13 -7 13 7 0 21
-9 32 -20 26 -26 26 -25 25 8 0 24 -3 27 -32 26 -22 -1 -33 3 -33 12 0 21 -23
17 -40 -6 -18 -25 -27 -25 -35 0 -6 18 -8 19 -22 5 -17 -17 -34 -16 -41 3 -2
8 3 10 14 5 14 -5 13 -2 -5 16 -12 12 -26 19 -31 16 -6 -4 -10 -1 -10 6 0 8
-3 9 -14 0 -10 -9 -17 -7 -27 5 -10 12 -25 15 -61 12 -29 -3 -45 -1 -41 5 3 6
-4 6 -18 1 -13 -5 -49 -9 -79 -10 -84 -2 -92 -3 -86 -12 3 -5 -7 -7 -23 -4
-17 2 -32 -2 -40 -12 -14 -17 -41 -22 -41 -7 0 4 -12 7 -27 5 -16 -2 -40 -5
-55 -6 -15 0 -29 -7 -32 -15 -3 -7 -11 -13 -18 -13 -9 0 -9 3 2 10 8 5 12 12
8 15 -3 3 -13 -1 -21 -10 -15 -15 -89 -16 -104 -1 -11 10 -65 7 -58 -4 11 -18
-14 -11 -25 8 -9 13 -10 13 -7 1 6 -20 -31 -45 -46 -30 -7 7 -16 7 -29 0 -10
-5 -18 -7 -18 -3 0 3 -7 1 -15 -6 -9 -7 -14 -19 -11 -26 3 -7 -1 -18 -9 -24
-19 -16 -26 -50 -9 -43 8 3 14 1 14 -5 0 -5 -9 -12 -21 -15 -16 -4 -19 -10
-14 -28 7 -21 5 -21 -51 -17 -72 6 -164 43 -164 67 0 9 -6 23 -12 29 -10 10
-10 15 -1 20 7 4 10 23 8 45 -2 27 1 37 11 37 8 0 14 5 14 10 0 6 -8 10 -17
10 -14 0 -15 2 -4 9 8 5 12 19 9 35 -4 22 -3 24 9 14 12 -10 14 -6 8 25 -5 24
-3 42 5 52 6 8 9 19 5 25 -3 5 0 10 7 11 10 0 10 2 1 6 -9 3 -10 9 -1 23 9 14
9 25 0 45 -7 14 -8 24 -3 21 23 -14 28 65 6 87 -13 13 -13 16 2 21 8 4 22 1
29 -5 10 -8 14 -8 14 0 0 6 -5 11 -11 11 -6 0 -9 7 -6 15 4 8 2 17 -3 20 -6 4
-10 1 -10 -6 0 -7 -2 -10 -5 -7 -3 3 -1 17 4 31 7 17 7 28 1 32 -6 4 -10 15
-10 26 0 10 -5 19 -11 19 -7 0 -5 10 6 26 12 19 14 29 5 39 -8 9 -8 20 -2 32
11 20 10 67 -3 96 -6 14 -4 16 10 11 15 -6 16 -4 6 14 -8 14 -8 23 -1 27 8 5
7 12 -2 23 -11 14 -10 15 7 8 16 -6 18 -5 8 5 -15 15 -17 33 -4 24 5 -3 12 -1
16 5 3 5 1 10 -5 10 -7 0 -10 6 -7 14 3 8 1 16 -6 19 -8 2 -8 8 3 20 38 42 41
47 28 47 -10 0 -10 2 1 9 7 5 11 13 7 19 -3 6 0 13 6 15 10 4 9 8 -2 16 -12 9
-11 11 7 11 16 0 25 8 29 25 3 14 10 23 14 20 5 -3 11 9 13 27 3 26 4 23 5
-14 3 -72 17 -65 31 18 8 41 18 74 22 74 5 0 9 10 9 23 1 22 1 22 15 -3 17
-30 18 -40 4 -40 -5 0 -7 6 -3 13 5 9 4 9 -6 0 -7 -6 -10 -17 -8 -24 3 -9 11
-6 27 10 17 17 25 20 31 11 5 -8 9 -7 14 5 3 9 4 21 0 26 -3 5 2 9 10 9 9 0
16 5 16 10 0 6 5 10 10 10 6 0 8 -11 4 -25 -7 -29 10 -34 41 -11 11 8 25 12
32 9 7 -3 20 0 28 7 8 6 18 9 23 6 6 -3 15 1 22 9 6 7 18 11 25 8 8 -3 30 5
49 16 21 14 37 18 41 11 4 -6 15 -4 30 6 13 9 29 13 35 9 5 -3 10 -1 10 5 0 7
8 9 20 5 11 -4 20 -2 20 4 0 6 4 11 10 11 5 0 7 -7 4 -15 -7 -18 12 -20 19 -2
4 9 8 8 16 -3 9 -13 11 -13 11 1 0 21 40 38 65 28 11 -4 38 -5 59 -2 27 4 37
3 32 -5 -4 -7 1 -10 14 -9 11 1 20 5 20 10 0 5 11 7 25 5 14 -3 28 -2 30 2 7
11 45 0 45 -13 0 -6 3 -7 7 -3 4 4 -3 16 -17 27 l-25 19 38 -15 c34 -14 41
-13 38 8 -2 11 27 9 34 -3 3 -5 10 -10 16 -10 5 0 9 5 9 10 0 6 -6 10 -14 10
-7 0 -16 11 -18 24 -4 19 -1 22 14 18 10 -2 18 -8 18 -13z m700 11 c0 -5 -2
-10 -4 -10 -3 0 -8 5 -11 10 -3 6 -1 10 4 10 6 0 11 -4 11 -10z m180 0 c0 -5
-2 -10 -4 -10 -3 0 -8 5 -11 10 -3 6 -1 10 4 10 6 0 11 -4 11 -10z m-683 -25
c9 -24 -1 -27 -15 -5 -8 13 -8 20 -2 20 6 0 13 -7 17 -15z m-1577 -54 c0 -5
-7 -12 -16 -15 -14 -5 -15 -4 -4 9 14 17 20 19 20 6z m2417 -53 c-3 -8 -6 -5
-6 6 -1 11 2 17 5 13 3 -3 4 -12 1 -19z m-2447 -5 c-1 -5 -12 -21 -25 -38 -30
-36 -34 -19 -4 19 21 26 29 32 29 19z m2601 -40 c-12 -20 -14 -14 -5 12 4 9 9
14 11 11 3 -2 0 -13 -6 -23z m-21 -17 c0 -3 -4 -8 -10 -11 -5 -3 -10 -1 -10 4
0 6 5 11 10 11 6 0 10 -2 10 -4z m174 -125 c3 -5 -1 -11 -9 -14 -9 -4 -12 -1
-8 9 6 16 10 17 17 5z m51 -141 c3 -5 1 -10 -4 -10 -6 0 -11 5 -11 10 0 6 2
10 4 10 3 0 8 -4 11 -10z m20 -129 c-5 -2 -13 -9 -17 -15 -4 -6 -10 -7 -15 -3
-4 5 -2 12 5 16 8 4 10 15 6 26 -7 17 -6 17 12 -1 11 -10 15 -21 9 -23z m15
-58 c0 -10 -4 -24 -9 -32 -8 -12 -12 -12 -25 -2 -18 15 -21 31 -6 31 6 0 10
-8 10 -17 0 -15 2 -15 9 -4 5 8 7 20 4 28 -3 7 0 13 6 13 6 0 11 -8 11 -17z
m-18 -115 c-7 -7 -12 -8 -12 -2 0 6 3 14 7 17 3 4 9 5 12 2 2 -3 -1 -11 -7
-17z m-16 -113 c-3 -10 1 -15 11 -15 9 0 14 -2 11 -5 -8 -8 -58 5 -58 15 0 5
8 11 18 13 9 3 19 5 21 6 2 0 1 -6 -3 -14z m-74 -77 c-7 -7 -12 -8 -12 -2 0 6
3 14 7 17 3 4 9 5 12 2 2 -3 -1 -11 -7 -17z m138 -2 c0 -11 -19 -15 -25 -6 -3
5 1 10 9 10 9 0 16 -2 16 -4z m-107 -266 c3 -10 -1 -24 -9 -31 -10 -8 -14 -8
-14 0 0 6 -4 11 -10 11 -5 0 -10 -7 -10 -15 0 -8 -4 -15 -10 -15 -5 0 -10 2
-10 4 0 2 -3 12 -7 22 -4 12 -3 15 6 10 8 -5 18 0 27 13 19 26 30 27 37 1z
m-83 0 c0 -5 -5 -10 -11 -10 -5 0 -7 5 -4 10 3 6 8 10 11 10 2 0 4 -4 4 -10z
m-193 -126 c-3 -3 -12 -4 -19 -1 -8 3 -5 6 6 6 11 1 17 -2 13 -5z m-549 -212
c2 -6 -6 -10 -16 -9 -12 1 -18 6 -15 14 6 16 25 13 31 -5z m-1052 -22 c0 -20
-7 -25 -19 -14 -7 7 2 34 12 34 4 0 7 -9 7 -20z m2201 -42 c-2 -13 -4 -3 -4
22 0 25 2 35 4 23 2 -13 2 -33 0 -45z m-2526 -35 c10 -11 10 -14 2 -9 -9 5
-13 -1 -13 -19 0 -17 5 -25 13 -22 6 2 22 0 35 -4 14 -5 22 -5 22 2 0 6 5 7
10 4 6 -3 10 -11 10 -17 0 -7 -16 -9 -46 -4 -41 5 -45 4 -39 -12 4 -9 9 -32
12 -49 3 -19 12 -33 19 -33 17 0 18 12 2 30 -11 12 -10 12 3 2 13 -9 26 -9 62
2 26 8 47 12 47 10 0 -3 10 0 22 7 18 10 20 9 15 -5 -5 -12 -1 -16 15 -16 16
0 18 3 9 14 -7 9 -8 17 -3 20 6 3 12 -1 16 -9 4 -11 11 -13 29 -6 14 6 30 5
41 -1 14 -8 17 -7 12 1 -4 7 1 11 13 11 11 0 22 4 25 9 3 4 35 9 71 10 51 1
65 -1 65 -13 0 -19 -50 -58 -67 -52 -7 3 -24 1 -38 -4 -16 -6 -25 -6 -25 0 0
6 -10 6 -26 0 -14 -6 -30 -7 -36 -4 -6 4 -13 2 -17 -3 -3 -5 -33 -14 -65 -19
-36 -5 -61 -15 -64 -23 -4 -11 0 -12 14 -6 20 8 156 18 209 15 48 -3 98 -2
132 3 26 4 31 2 26 -12 -5 -13 -3 -14 8 -3 21 19 31 14 18 -10 -9 -17 -9 -23
0 -26 7 -2 4 -11 -10 -23 -18 -15 -19 -19 -6 -19 18 0 51 29 60 51 3 11 7 11
17 2 10 -9 10 -15 -2 -27 -9 -8 -19 -12 -23 -8 -5 4 -5 2 -1 -5 4 -7 14 -9 23
-6 10 4 14 2 9 -5 -4 -7 5 -9 31 -6 77 11 175 35 189 47 8 7 21 18 29 25 20
18 27 15 15 -7 -22 -41 -125 -75 -285 -92 -99 -10 -266 -7 -335 6 -14 3 -41 8
-60 11 -116 21 -187 73 -201 146 -8 43 -12 168 -5 168 2 0 10 -8 17 -17z
m2513 -47 c-6 -15 -24 -23 -24 -11 0 8 24 34 28 30 1 -1 0 -10 -4 -19z m-1304
-34 c50 -75 55 -91 36 -121 -7 -10 -3 -12 15 -7 18 5 20 4 9 -3 -17 -10 -21
-72 -6 -70 10 1 29 -28 32 -49 5 -28 14 -43 24 -37 6 4 8 10 5 14 -12 21 47 6
64 -15 10 -13 21 -20 25 -16 4 3 4 -2 0 -13 -6 -15 -4 -17 9 -12 9 3 17 2 17
-3 0 -10 40 -25 54 -21 5 1 12 -3 16 -9 4 -7 15 -8 30 -2 30 11 70 3 70 -14 0
-17 17 -18 23 -1 3 7 6 4 6 -6 1 -10 6 -15 11 -12 6 4 17 1 25 -5 12 -10 15
-9 15 3 0 8 7 20 15 27 13 11 14 10 10 -2 -10 -25 22 -29 59 -7 28 16 39 18
55 9 17 -9 21 -8 21 5 0 8 5 15 10 15 6 0 10 -3 10 -7 0 -5 23 -9 51 -10 43
-2 52 1 56 17 6 23 23 26 41 8 10 -10 11 -5 7 22 l-5 35 10 -32 c6 -18 17 -33
25 -33 17 0 20 26 5 35 -6 4 -8 11 -4 16 7 12 34 -8 34 -26 0 -7 7 -15 15 -19
18 -6 19 -1 5 24 -7 13 -7 21 0 25 6 4 7 12 4 18 -4 7 -4 9 0 5 10 -8 66 11
66 23 0 5 -4 9 -10 9 -5 0 -10 -5 -10 -11 0 -7 -9 -9 -22 -6 -12 4 -29 1 -37
-6 -18 -15 -61 -17 -61 -2 0 6 26 16 58 23 101 21 149 52 226 147 20 24 27 28
37 18 11 -11 10 -13 -5 -13 -10 0 -14 -4 -10 -12 4 -6 3 -8 -3 -5 -6 4 -16 0
-23 -8 -9 -10 -9 -15 -1 -15 6 0 11 -4 11 -9 0 -5 -8 -8 -17 -7 -10 0 -17 -5
-16 -11 2 -7 -2 -13 -7 -13 -6 0 -10 -5 -10 -11 0 -5 5 -7 10 -4 6 3 10 1 10
-4 0 -6 -4 -11 -10 -11 -5 0 -10 -9 -10 -20 0 -11 7 -20 15 -20 8 0 15 -5 15
-11 0 -5 -4 -8 -9 -5 -5 3 -12 -1 -15 -10 -5 -12 -2 -15 9 -10 10 3 13 2 10
-4 -7 -12 33 -49 53 -50 18 0 15 -14 -8 -30 -13 -10 -18 -21 -14 -35 4 -15 3
-17 -5 -6 -8 12 -12 12 -25 2 -16 -13 -23 -1 -8 13 19 19 6 62 -27 91 -25 22
-33 25 -28 12 4 -10 7 -23 7 -28 0 -5 7 -9 15 -9 8 0 15 -6 15 -13 0 -8 -7
-14 -15 -14 -8 0 -15 6 -15 12 0 7 -9 20 -20 30 -25 22 -25 19 -1 -31 14 -28
16 -43 9 -52 -9 -11 -13 -11 -19 0 -5 7 -9 21 -9 31 0 9 -4 17 -9 17 -5 0 -8
-11 -7 -25 0 -14 4 -25 7 -25 4 0 9 -9 12 -21 5 -18 9 -19 27 -9 12 6 19 14
16 17 -7 7 13 33 24 33 4 0 7 -17 6 -39 -2 -35 0 -39 21 -37 14 0 21 6 18 14
-7 18 1 15 31 -13 20 -18 24 -29 17 -36 -8 -8 -13 -5 -18 10 -6 21 -25 29 -25
11 0 -5 -3 -9 -7 -9 -23 4 -31 -3 -26 -21 3 -11 1 -20 -5 -20 -6 0 -12 10 -14
22 -2 12 -9 23 -15 26 -20 6 -27 -26 -9 -43 9 -9 16 -14 16 -10 0 3 10 0 22
-6 21 -11 21 -13 4 -19 -17 -6 -16 -8 7 -36 20 -24 22 -31 11 -41 -16 -16 -47
-5 -40 13 4 10 -3 14 -24 14 -35 0 -45 -13 -31 -39 8 -14 8 -21 -2 -24 -6 -2
-9 -8 -4 -12 4 -5 19 2 34 16 14 13 23 18 18 10 -6 -11 -4 -13 8 -8 9 3 24 -1
33 -10 13 -14 17 -14 25 -2 5 8 9 9 9 3 0 -6 -9 -19 -20 -29 -15 -14 -19 -15
-15 -4 4 12 -3 15 -32 16 -48 1 -59 -5 -36 -23 11 -8 13 -13 6 -14 -22 0 -14
-20 11 -32 22 -9 28 -7 50 18 17 20 28 26 35 19 7 -7 7 -15 0 -25 -9 -12 -10
-12 -5 3 4 12 2 17 -6 15 -7 -3 -15 -13 -17 -24 -1 -10 -9 -26 -17 -35 -8 -9
-11 -19 -7 -22 3 -4 1 -7 -6 -7 -7 0 -11 6 -9 12 6 18 -14 36 -48 43 l-29 7
24 -14 c14 -7 28 -25 32 -39 6 -23 4 -25 -20 -22 -14 2 -20 0 -13 -3 17 -8 15
-34 -4 -34 -8 0 -12 -5 -8 -11 3 -6 0 -15 -7 -20 -10 -6 -11 -9 -1 -9 6 0 12
-6 12 -14 0 -8 5 -16 12 -18 7 -3 9 -12 4 -23 -6 -16 -9 -17 -16 -5 -7 10 -10
11 -10 3 0 -7 -9 -13 -20 -13 -11 0 -20 -4 -20 -10 0 -6 9 -6 25 0 14 5 25 6
25 1 0 -5 3 -18 6 -28 5 -15 4 -15 -5 -3 -5 8 -13 11 -17 7 -4 -3 -1 -14 7
-24 9 -11 10 -14 2 -9 -12 7 -17 -4 -14 -30 1 -6 -12 -10 -29 -9 -24 1 -28 -1
-19 -12 6 -7 17 -13 24 -13 7 0 18 -7 25 -16 11 -12 11 -15 0 -12 -8 2 -16 -6
-18 -17 -2 -11 -11 -26 -20 -32 -13 -11 -13 -13 -1 -13 8 0 15 -9 15 -20 0
-13 -5 -19 -14 -15 -19 7 -34 -37 -16 -51 12 -10 11 -12 -6 -17 -11 -3 -23 -1
-26 4 -3 5 -11 9 -17 9 -7 0 0 -8 15 -18 l27 -18 -33 -28 c-23 -19 -33 -36
-32 -52 0 -15 6 -22 14 -19 6 2 12 0 12 -5 0 -6 -3 -10 -7 -10 -5 0 -16 -12
-27 -26 -15 -22 -16 -28 -5 -35 11 -7 10 -11 -6 -23 -11 -9 -30 -16 -43 -16
-13 0 -20 -4 -17 -10 3 -6 2 -10 -3 -10 -5 0 -12 -9 -15 -21 -4 -13 -10 -18
-18 -13 -8 4 -10 3 -5 -4 4 -7 2 -12 -3 -12 -6 0 -10 -3 -9 -7 1 -8 -3 -21
-26 -75 -6 -16 -18 -28 -26 -29 -10 0 -11 -2 -2 -6 6 -2 12 -9 12 -15 0 -6 -7
-7 -16 -4 -13 5 -15 2 -11 -14 3 -11 1 -18 -4 -14 -5 3 -9 -2 -9 -10 0 -9 -4
-16 -8 -16 -13 0 -14 61 -1 76 8 10 8 14 0 14 -6 0 -11 -5 -11 -11 0 -5 -5 -7
-12 -3 -8 5 -9 2 -5 -9 4 -10 1 -17 -6 -17 -8 0 -8 -3 2 -9 15 -9 7 -31 -11
-31 -6 0 -8 3 -5 6 3 4 2 16 -4 27 -9 15 -8 18 2 12 9 -6 11 -3 6 9 -4 10 -1
19 8 22 10 4 12 12 5 30 -6 16 -6 24 1 24 6 0 7 4 4 10 -8 14 -34 -11 -28 -27
7 -18 -7 -16 -28 3 -10 9 -23 13 -29 9 -15 -9 -2 -25 15 -18 8 3 15 0 15 -6 0
-20 -40 -12 -49 11 -4 12 -10 17 -14 11 -5 -7 -20 -8 -42 -3 -23 5 -33 4 -29
-2 4 -6 2 -13 -4 -17 -8 -5 -8 -17 -3 -36 5 -17 10 -24 10 -17 1 6 5 12 11 12
5 0 7 -6 4 -14 -3 -8 0 -17 5 -21 6 -3 8 -11 5 -17 -4 -5 4 -5 16 2 20 11 22
10 17 -5 -5 -13 -2 -16 15 -13 12 2 24 10 26 18 4 12 3 13 -10 2 -13 -10 -16
-9 -21 7 -3 14 -1 18 9 14 10 -3 12 0 9 10 -4 10 3 18 24 25 19 7 31 7 31 1 0
-8 -14 -13 -32 -10 -11 2 -10 -6 7 -39 14 -27 14 -33 -1 -57 l-16 -28 20 23
c21 23 47 29 57 12 6 -9 -8 -14 -28 -11 -5 1 -6 -8 -2 -19 4 -12 0 -29 -11
-42 l-16 -23 5 22 c5 21 -14 37 -39 32 -21 -4 -26 2 -14 16 11 13 10 14 -5 9
-13 -6 -16 -4 -10 6 5 8 3 11 -6 8 -8 -3 -13 -15 -11 -26 2 -16 -1 -20 -12
-16 -12 4 -16 1 -14 -12 4 -46 -1 -55 -22 -42 -26 16 -50 -3 -31 -25 12 -15 5
-47 -13 -59 -7 -5 -6 -8 3 -8 11 0 11 -4 -2 -18 -10 -10 -15 -21 -11 -24 3 -3
-4 -21 -15 -39 -12 -19 -21 -43 -22 -54 0 -18 -1 -18 -9 2 -9 23 -30 32 -30
13 0 -5 6 -10 13 -10 9 0 8 -3 -2 -9 -10 -7 -10 -10 -1 -16 9 -6 3 -16 -20
-36 -34 -30 -54 -36 -65 -19 -3 6 -14 10 -23 10 -16 -1 -16 -1 1 -11 24 -14
21 -26 -8 -33 -14 -4 -25 -10 -25 -15 0 -11 -31 -7 -58 8 -31 16 -56 7 -49
-19 4 -14 0 -20 -11 -20 -15 0 -15 -2 -2 -10 9 -6 10 -10 3 -10 -6 0 -19 7
-28 17 -10 9 -20 12 -23 7 -4 -6 -18 -11 -31 -11 -13 -1 -27 -7 -31 -14 -6 -8
-9 -8 -15 1 -4 6 -13 9 -21 6 -8 -3 -14 0 -14 7 0 9 -3 8 -9 -1 -6 -11 -11
-10 -25 3 -9 9 -16 21 -16 26 0 5 -9 4 -19 -3 -15 -9 -25 -9 -45 0 -14 7 -37
17 -50 23 -13 6 -29 9 -34 5 -5 -3 -16 2 -23 11 -12 14 -11 15 11 9 24 -7 24
-7 5 9 -11 8 -25 13 -32 11 -8 -3 -15 5 -19 20 -4 14 -9 22 -13 17 -13 -18
-42 -6 -71 28 -16 20 -27 39 -23 42 6 7 -5 12 -51 22 -28 6 -28 6 -10 26 16
18 16 19 1 13 -18 -6 -56 29 -57 54 0 6 -4 12 -9 12 -5 0 -12 11 -15 24 -3 13
-13 26 -21 30 -9 3 -14 2 -11 -2 2 -4 1 -14 -5 -22 -7 -13 -9 -13 -10 0 -1 8
-1 23 0 32 2 13 -2 16 -16 11 -16 -6 -17 -5 -4 11 13 16 13 17 -4 14 -10 -1
-20 3 -23 11 -3 10 0 12 12 8 12 -5 16 -1 16 14 0 14 5 19 14 16 11 -4 11 1 1
30 -11 31 -10 38 6 54 11 11 19 24 19 30 0 8 4 8 14 0 12 -10 13 -8 9 9 -4 15
-11 19 -24 15 -23 -8 -25 8 -4 25 21 18 19 29 -8 36 -30 7 -97 76 -79 82 6 2
12 8 12 14 0 6 -7 7 -15 4 -21 -8 -32 23 -14 36 11 8 10 9 -3 4 -10 -3 -20 -1
-23 4 -3 5 -15 0 -27 -12 -15 -15 -18 -23 -9 -26 9 -3 9 -7 0 -18 -10 -12 -8
-18 7 -29 10 -8 14 -15 7 -15 -6 0 -16 -14 -22 -30 -9 -28 -12 -29 -35 -19
-14 7 -23 15 -21 20 10 15 -7 38 -23 31 -15 -5 -15 -4 -3 12 11 13 11 20 3 28
-9 9 -12 9 -12 0 0 -10 -5 -10 -21 -2 -11 7 -18 17 -16 24 3 7 -4 18 -15 25
-12 7 -17 18 -14 28 4 9 -4 30 -19 49 -14 18 -25 37 -25 43 0 6 -5 11 -11 11
-6 0 -9 6 -6 13 6 17 -12 49 -24 41 -7 -4 -7 1 0 15 10 18 9 20 -6 15 -16 -5
-16 -4 1 10 18 15 15 21 -8 17 -5 -1 -6 5 -3 13 3 8 -1 20 -9 26 -11 10 -14
10 -14 1 0 -7 -5 -9 -11 -5 -8 5 -7 9 1 14 9 5 11 19 7 40 -6 28 -5 31 14 25
16 -5 19 -4 14 5 -5 9 -1 10 15 5 16 -5 20 -4 15 5 -4 7 -17 9 -31 6 -30 -8
-31 0 -1 25 12 10 16 18 9 19 -7 0 -2 11 13 25 29 30 34 46 6 21 -20 -18 -67
-14 -55 5 4 6 11 6 19 -1 10 -8 15 -8 21 1 4 8 3 9 -4 5 -12 -7 -16 5 -13 32
1 6 -4 12 -10 12 -7 0 -9 3 -6 7 4 3 -2 13 -13 20 -26 18 -16 37 11 23 15 -9
19 -7 19 5 0 8 5 15 12 15 6 0 0 10 -13 23 -18 16 -25 19 -29 9 -6 -15 -40 14
-74 61 -17 25 -45 40 -31 17 3 -5 2 -10 -4 -10 -5 0 -13 5 -16 10 -4 6 -11 8
-16 5 -11 -8 7 -26 41 -42 23 -11 23 -12 3 -9 -28 3 -63 34 -63 56 0 18 -25
34 -39 25 -5 -2 -7 7 -5 21 1 14 0 23 -4 20 -3 -3 -14 6 -24 21 -13 21 -18 24
-18 11 0 -10 -7 -18 -16 -18 -14 0 -14 -3 -3 -16 10 -13 10 -17 -1 -24 -10 -6
-9 -9 5 -11 13 -3 18 -14 19 -36 1 -22 -2 -29 -10 -22 -7 5 -16 9 -20 8 -30
-5 -37 1 -20 20 15 16 15 19 1 31 -13 11 -16 11 -13 0 2 -7 -3 -15 -9 -17 -7
-3 -13 3 -13 12 0 11 -5 15 -15 12 -8 -4 -17 -2 -20 3 -4 6 -1 10 6 10 7 0 5
8 -6 20 -10 11 -15 23 -12 27 4 3 7 1 7 -5 0 -7 5 -12 10 -12 6 0 10 10 10 21
0 12 8 28 18 35 16 13 16 13 0 14 -10 0 -18 7 -18 15 0 8 -5 15 -11 15 -6 0
-17 -7 -25 -15 -9 -8 -21 -15 -27 -15 -6 0 -1 7 11 16 28 19 28 28 0 42 l-23
12 25 -3 c14 -1 30 -9 37 -17 6 -8 15 -12 18 -8 4 4 -1 15 -11 25 -16 16 -16
18 -1 21 14 3 13 6 -4 23 -11 11 -18 27 -15 35 3 8 1 14 -4 14 -6 0 -10 -5
-10 -11 0 -6 -6 -9 -12 -6 -7 2 -12 10 -10 17 2 7 -2 16 -9 21 -6 4 -14 29
-16 56 -4 38 -1 53 12 66 9 9 12 17 7 17 -5 0 -10 10 -10 23 0 12 -5 50 -10
85 -8 57 -7 64 10 76 12 9 16 16 9 21 -6 3 -11 0 -11 -7 0 -7 -6 -5 -12 6 -9
16 -7 23 11 37 11 9 21 20 21 24 0 4 -7 2 -15 -5 -17 -14 -21 0 -4 17 13 13
39 -6 39 -26 0 -6 11 -12 25 -12 46 -3 50 -4 51 -16 3 -24 4 -25 19 -13 10 9
15 9 15 1 0 -6 -5 -11 -11 -11 -12 0 -3 -37 15 -59 6 -8 9 -24 8 -37 -2 -13 2
-24 8 -24 6 0 8 5 4 12 -5 7 -2 9 9 5 18 -7 41 15 29 29 -4 4 0 3 10 -4 19
-15 31 -2 21 24 -4 12 -3 15 5 10 17 -10 15 -56 -3 -62 -8 -4 -12 -10 -9 -16
3 -5 11 -4 20 3 10 8 17 8 27 -3 12 -11 10 -16 -8 -32 -13 -12 -20 -27 -17
-38 2 -10 -1 -18 -7 -18 -7 0 -9 -5 -5 -11 7 -11 76 57 87 85 8 21 13 20 137
-9 58 -14 124 -25 147 -25 34 0 41 -3 37 -15 -4 -10 -14 -14 -28 -10 -15 5
-17 3 -8 -3 11 -7 9 -10 -7 -15 -12 -3 -21 -9 -21 -14 0 -12 54 -35 58 -24 2
5 15 3 30 -5 24 -12 28 -12 38 1 14 19 44 9 45 -14 1 -13 2 -12 6 2 4 14 10
17 26 12 12 -4 38 -8 59 -9 20 0 34 -5 30 -10 -3 -5 2 -7 11 -3 9 3 18 1 21
-6 3 -9 7 -8 15 2 8 12 14 13 35 3 14 -6 26 -8 26 -4 0 14 48 29 64 20 11 -6
22 -6 31 2 8 6 19 9 25 5 6 -3 10 3 10 14 0 12 7 21 15 21 8 0 30 15 49 34 19
19 37 33 40 30 3 -2 4 -1 1 3 -3 4 8 20 23 37 28 30 54 74 86 146 9 20 30 53
48 74 28 34 35 37 69 34 22 -2 39 -1 39 3 0 19 49 -8 70 -39z m1456 16 c-2
-17 -11 -24 -32 -26 l-29 -2 30 25 c36 30 36 30 31 3z m-768 -9 c1 -1 6 -2 11
-3 4 0 23 -12 41 -26 32 -25 32 -25 9 -30 -25 -6 -35 -37 -10 -32 7 1 19 -3
27 -9 8 -7 17 -9 20 -6 3 3 19 1 36 -4 21 -6 36 -5 45 3 11 9 12 7 7 -7 -5
-13 -4 -16 5 -11 6 4 9 16 6 26 -5 16 -1 18 29 16 20 -2 33 1 30 5 -3 5 0 9 7
9 7 0 2 12 -12 26 -16 17 -19 25 -9 23 8 -1 23 1 32 5 9 4 25 3 37 -3 24 -13
34 -14 26 -2 -3 5 0 13 6 16 7 5 8 -7 3 -41 -13 -90 -24 -104 -109 -139 -35
-15 -38 -15 -26 -1 12 14 11 16 -5 15 -11 0 -28 -4 -39 -9 -18 -8 -18 -9 5
-10 19 -2 16 -4 -14 -11 -29 -7 -42 -6 -48 3 -7 12 -12 4 -9 -14 0 -5 -11 -8
-25 -8 -23 0 -25 2 -14 15 7 9 10 18 7 22 -12 11 15 33 39 33 13 0 24 5 24 10
0 6 -10 10 -23 10 -13 0 -27 4 -33 10 -5 5 -34 13 -64 18 -35 5 -54 13 -52 20
4 20 -18 53 -30 46 -7 -5 -5 -12 7 -20 10 -8 15 -17 11 -21 -4 -4 -10 -2 -14
4 -4 6 -14 11 -22 10 -8 -1 -15 3 -15 8 0 6 3 9 8 8 10 -4 9 5 -4 29 -10 19
-9 20 15 16 14 -3 23 -2 21 2 -4 6 54 6 63 -1z m-124 -14 c11 -8 15 -15 9 -15
-19 0 -43 12 -43 21 0 13 12 11 34 -6z m-1284 -20 c0 -8 -4 -15 -10 -15 -5 0
-7 7 -4 15 4 8 8 15 10 15 2 0 4 -7 4 -15z m2173 -25 c-21 -24 -28 -19 -13 9
6 12 15 19 20 16 5 -3 2 -14 -7 -25z m-583 -15 c0 -8 -4 -15 -10 -15 -5 0 -10
7 -10 15 0 8 5 15 10 15 6 0 10 -7 10 -15z m-1195 -5 c3 -5 1 -10 -4 -10 -6 0
-11 5 -11 10 0 6 2 10 4 10 3 0 8 -4 11 -10z m988 -33 c4 3 13 1 21 -6 8 -6
18 -11 22 -10 27 5 64 -2 59 -11 -4 -6 -11 -8 -16 -5 -5 3 -6 0 -3 -8 6 -16
-23 -28 -67 -31 -17 -1 -25 3 -22 11 3 7 -2 15 -10 19 -9 3 -13 12 -10 20 3 8
0 14 -7 14 -6 0 -8 5 -5 10 5 8 11 8 19 1 7 -6 16 -8 19 -4z m-183 -1 c0 -3
-4 -8 -10 -11 -5 -3 -10 -1 -10 4 0 6 5 11 10 11 6 0 10 -2 10 -4z m69 -27
c-8 -15 -6 -19 8 -19 14 0 15 -2 4 -9 -15 -10 -43 8 -34 22 2 4 -1 7 -6 7 -23
0 -10 15 14 16 21 2 23 -1 14 -17z m869 -9 c1 -34 2 -33 -33 -20 -29 11 -25
26 9 40 11 5 21 9 22 9 1 1 1 -12 2 -29z m-273 10 c3 -5 1 -10 -4 -10 -6 0
-11 5 -11 10 0 6 2 10 4 10 3 0 8 -4 11 -10z m-2397 -34 c20 -34 20 -34 1 -39
-15 -4 -18 -2 -10 7 8 9 6 18 -4 32 -14 19 -19 34 -11 34 2 0 13 -15 24 -34z
m682 -16 c0 -5 -2 -10 -4 -10 -3 0 -8 5 -11 10 -3 6 -1 10 4 10 6 0 11 -4 11
-10z m1970 -6 c0 -8 -4 -12 -10 -9 -5 3 -10 10 -10 16 0 5 5 9 10 9 6 0 10 -7
10 -16z m-1090 -6 c0 -5 10 -9 23 -8 12 1 24 1 27 0 31 -11 291 -15 333 -5 15
4 28 2 32 -6 6 -9 2 -11 -13 -7 -12 4 -25 2 -28 -3 -9 -15 -258 -10 -340 7
-103 21 -132 33 -76 32 23 -1 42 -5 42 -10z m810 -18 c0 -5 -4 -10 -10 -10 -5
0 -10 5 -10 10 0 6 5 10 10 10 6 0 10 -4 10 -10z m320 -35 c0 -13 -4 -26 -9
-30 -6 -3 -8 7 -5 22 3 21 2 24 -5 13 -12 -18 -26 -7 -18 14 9 23 37 8 37 -19z
m-623 -21 c-3 -3 -12 -4 -19 -1 -8 3 -5 6 6 6 11 1 17 -2 13 -5z m-1677 -20
c0 -2 -7 -4 -15 -4 -8 0 -15 4 -15 10 0 5 7 7 15 4 8 -4 15 -8 15 -10z m1610
7 c0 -6 -4 -13 -10 -16 -5 -3 -10 -2 -10 3 0 6 -19 8 -42 5 -32 -3 -39 -2 -28
6 19 13 90 14 90 2z m-1532 -8 c-10 -2 -28 -2 -40 0 -13 2 -5 4 17 4 22 1 32
-1 23 -4z m85 0 c-7 -2 -21 -2 -30 0 -10 3 -4 5 12 5 17 0 24 -2 18 -5z
m-1003 -78 c14 -19 14 -19 -2 -6 -10 7 -18 18 -18 24 0 6 1 8 3 6 1 -2 9 -13
17 -24z m-20 -15 c0 -5 -2 -10 -4 -10 -3 0 -8 5 -11 10 -3 6 -1 10 4 10 6 0
11 -4 11 -10z m2880 -4 c0 -3 -4 -8 -10 -11 -5 -3 -10 -1 -10 4 0 6 5 11 10
11 6 0 10 -2 10 -4z m-2855 -27 c11 -17 -1 -21 -15 -4 -8 9 -8 15 -2 15 6 0
14 -5 17 -11z m-25 -88 c0 -5 -10 -11 -22 -14 -22 -6 -22 -6 -4 8 23 17 26 18
26 6z m2900 -1 c0 -5 -5 -10 -11 -10 -5 0 -7 5 -4 10 3 6 8 10 11 10 2 0 4 -4
4 -10z m-2706 -21 c-3 -5 -10 -7 -15 -3 -5 3 -7 10 -3 15 3 5 10 7 15 3 5 -3
7 -10 3 -15z m2873 -29 c3 0 0 6 -6 14 -10 12 -8 13 9 9 16 -4 19 -10 14 -27
-4 -11 -11 -24 -17 -27 -5 -4 -6 -12 -3 -18 4 -6 1 -11 -8 -11 -8 0 -16 -3
-19 -7 -2 -5 -2 -2 0 6 2 8 -1 18 -8 21 -7 5 -9 19 -4 39 6 27 8 29 21 16 9
-8 18 -15 21 -15z m-157 10 c8 -5 12 -11 9 -14 -3 -3 -14 1 -25 9 -21 16 -8
20 16 5z m-70 -14 c0 -3 -4 -8 -10 -11 -5 -3 -10 -1 -10 4 0 6 5 11 10 11 6 0
10 -2 10 -4z m34 -41 c-4 -8 -11 -15 -16 -15 -6 0 -5 6 2 15 7 8 14 15 16 15
2 0 1 -7 -2 -15z m29 0 c-3 -9 -8 -14 -10 -11 -3 3 -2 9 2 15 9 16 15 13 8 -4z
m-143 -25 c0 -5 -2 -10 -4 -10 -3 0 -8 5 -11 10 -3 6 -1 10 4 10 6 0 11 -4 11
-10z m-2546 -24 c-3 -9 -10 -16 -15 -16 -5 0 -4 9 3 20 14 22 21 20 12 -4z
m2812 -22 c-3 -9 -2 -12 5 -9 6 4 17 -1 24 -11 17 -23 19 -34 4 -34 -5 0 -8 4
-5 9 3 5 -2 12 -11 15 -9 4 -20 2 -23 -4 -5 -8 -9 -6 -13 4 -8 19 1 46 15 46
6 0 7 -7 4 -16z m-2831 -34 c16 -7 16 -9 3 -9 -12 -1 -16 -10 -16 -38 1 -21
-2 -47 -5 -58 -3 -11 -6 -22 -6 -24 -1 -3 -12 6 -26 19 -27 25 -26 53 3 98 16
24 18 25 47 12z m2598 -26 c-4 -10 -9 -12 -15 -6 -12 12 -1 35 12 27 5 -3 6
-13 3 -21z m-2419 -30 c3 -8 2 -12 -4 -9 -6 3 -10 10 -10 16 0 14 7 11 14 -7z
m28 -36 c-8 -8 -9 -4 -5 13 4 13 8 18 11 10 2 -7 -1 -18 -6 -23z m2483 22 c3
-5 2 -10 -4 -10 -5 0 -13 5 -16 10 -3 6 -2 10 4 10 5 0 13 -4 16 -10z m-2618
-20 c1 -11 -2 -20 -8 -20 -10 0 -12 23 -2 33 9 9 9 10 10 -13z m290 -89 c14
-23 5 -35 -14 -20 -10 9 -13 8 -13 -5 0 -9 -4 -16 -10 -16 -5 0 -7 7 -4 15 4
8 1 15 -5 15 -6 0 -11 4 -11 9 0 8 10 13 40 20 3 0 11 -8 17 -18z m2213 -41
c0 -5 -4 -10 -10 -10 -5 0 -10 5 -10 10 0 6 5 10 10 10 6 0 10 -4 10 -10z
m-2225 -49 c-3 -6 -14 -11 -23 -11 -13 0 -13 2 4 14 21 15 30 14 19 -3z m50
-20 c-3 -6 -11 -11 -17 -11 -6 0 -6 6 2 15 14 17 26 13 15 -4z m2075 -325 c0
-3 -4 -8 -10 -11 -5 -3 -10 -1 -10 4 0 6 5 11 10 11 6 0 10 -2 10 -4z m-38
-58 c-7 -7 -16 -7 -29 1 -17 10 -16 10 4 11 17 0 21 5 17 18 -5 15 -4 15 6 -1
8 -13 9 -22 2 -29z m-1942 -43 c0 -9 7 -18 16 -22 12 -4 13 -8 3 -14 -8 -4
-18 -1 -26 9 -15 20 -17 42 -3 42 6 0 10 -7 10 -15z m239 -116 c-16 -10 -23
-4 -14 10 3 6 11 8 17 5 6 -4 5 -9 -3 -15z m8 -64 c5 -14 8 -14 29 0 30 19 31
9 2 -16 -27 -24 -31 -24 -45 6 -6 14 -7 25 -2 25 5 0 12 -7 16 -15z m83 -40
c-10 -12 -10 -19 -2 -27 20 -20 13 -32 -7 -14 -12 11 -17 24 -13 34 4 12 -2
10 -26 -7 -18 -12 -32 -18 -32 -13 0 15 43 41 69 41 20 1 22 -1 11 -14z m1174
-50 c3 -9 0 -15 -9 -15 -8 0 -15 7 -15 15 0 8 4 15 9 15 5 0 11 -7 15 -15z
m-1287 -30 c-7 -14 -15 -25 -19 -25 -11 0 -10 8 2 31 16 28 30 23 17 -6z m115
-87 c-12 -12 -35 -1 -27 12 3 5 13 6 21 3 10 -4 12 -9 6 -15z m1208 -84 c0
-17 -22 -14 -28 4 -2 7 3 12 12 12 9 0 16 -7 16 -16z m-1109 -131 c13 -16 12
-17 -3 -4 -17 13 -22 21 -14 21 2 0 10 -8 17 -17z m679 -254 c0 -10 5 -19 12
-19 6 0 9 -2 6 -5 -12 -12 -33 7 -34 30 -1 14 2 22 7 19 5 -3 9 -14 9 -25z
m120 -249 c0 -5 -2 -10 -4 -10 -3 0 -8 5 -11 10 -3 6 -1 10 4 10 6 0 11 -4 11
-10z m-125 -100 c-3 -5 -12 -10 -18 -10 -7 0 -6 4 3 10 19 12 23 12 15 0z
m121 -1 c3 -6 1 -16 -6 -22 -10 -9 -11 -9 -5 2 4 8 2 17 -6 22 -9 6 -10 9 -2
9 6 0 15 -5 19 -11z m-43 -24 c-3 -9 -8 -14 -10 -11 -3 3 -2 9 2 15 9 16 15
13 8 -4z m-167 -14 c0 -11 -5 -17 -13 -14 -10 4 -11 9 -2 19 15 18 15 18 15
-5z m79 9 c3 -5 -1 -10 -10 -10 -9 0 -13 5 -10 10 3 6 8 10 10 10 2 0 7 -4 10
-10z m5 -30 c0 -5 -8 -10 -17 -10 -15 0 -16 2 -3 10 19 12 20 12 20 0z m152
-22 c-11 -18 -32 -39 -46 -46 -14 -7 -26 -18 -26 -23 0 -6 -5 -7 -11 -4 -6 4
-8 13 -5 21 3 8 1 14 -4 14 -6 0 -10 7 -10 15 0 14 3 14 23 1 18 -12 25 -13
40 -1 12 8 14 15 8 20 -19 11 -12 23 9 18 11 -3 20 0 20 6 0 6 5 11 11 11 6 0
2 -14 -9 -32z m-200 -12 c7 4 8 2 4 -5 -9 -13 -26 -5 -25 12 0 9 2 8 6 -1 2
-6 10 -9 15 -6z m138 4 c0 -5 -4 -10 -10 -10 -5 0 -10 5 -10 10 0 6 5 10 10
10 6 0 10 -4 10 -10z m-326 -45 c3 -8 1 -15 -4 -15 -6 0 -10 7 -10 15 0 8 2
15 4 15 2 0 6 -7 10 -15z m211 -3 c-3 -3 -11 0 -18 7 -9 10 -8 11 6 5 10 -3
15 -9 12 -12z m65 8 c0 -5 -5 -10 -11 -10 -5 0 -7 5 -4 10 3 6 8 10 11 10 2 0
4 -4 4 -10z m-315 -10 c3 -5 1 -10 -4 -10 -6 0 -11 5 -11 10 0 6 2 10 4 10 3
0 8 -4 11 -10z m465 -11 c0 -5 -7 -9 -15 -9 -9 0 -12 6 -9 15 6 15 24 11 24
-6z m-60 1 c0 -5 -7 -10 -16 -10 -8 0 -12 5 -9 10 3 6 10 10 16 10 5 0 9 -4 9
-10z m-98 -21 c-20 -19 -48 -15 -30 5 6 6 19 12 29 12 17 0 17 -1 1 -17z m28
-29 c0 -5 -10 -10 -22 -10 -19 0 -20 2 -8 10 19 13 30 13 30 0z m315 0 c-3 -5
-11 -10 -16 -10 -6 0 -7 5 -4 10 3 6 11 10 16 10 6 0 7 -4 4 -10z m-635 -20
c0 -5 -7 -10 -15 -10 -8 0 -15 5 -15 10 0 6 7 10 15 10 8 0 15 -4 15 -10z m34
-5 c-7 -16 -24 -21 -24 -6 0 8 7 13 27 20 1 1 0 -6 -3 -14z m406 11 c0 -3 -4
-8 -10 -11 -5 -3 -10 -1 -10 4 0 6 5 11 10 11 6 0 10 -2 10 -4z m-143 -30 c0
-8 -6 -12 -14 -9 -7 3 -13 9 -13 14 0 5 6 9 13 9 8 0 14 -6 14 -14z m453 -23
c0 -13 -3 -13 -15 -3 -8 7 -15 16 -15 21 0 5 7 6 15 3 8 -4 15 -13 15 -21z
m-1400 7 c0 -5 -2 -10 -4 -10 -3 0 -8 5 -11 10 -3 6 -1 10 4 10 6 0 11 -4 11
-10z m1360 -8 c0 -5 -7 -9 -15 -9 -8 0 -15 4 -15 9 0 4 7 8 15 8 8 0 15 -4 15
-8z m-65 -12 c3 -5 -1 -10 -9 -10 -9 0 -16 5 -16 10 0 6 4 10 9 10 6 0 13 -4
16 -10z"/>
<path d="M2255 4540 c-3 -5 -1 -10 4 -10 6 0 11 5 11 10 0 6 -2 10 -4 10 -3 0
-8 -4 -11 -10z"/>
<path d="M1770 4400 c0 -5 5 -10 11 -10 5 0 7 5 4 10 -3 6 -8 10 -11 10 -2 0
-4 -4 -4 -10z"/>
<path d="M3961 4301 c-7 -5 -10 -14 -7 -20 11 -17 22 -13 22 9 0 11 0 20 -1
20 0 0 -6 -4 -14 -9z"/>
<path d="M4021 4074 c13 -16 29 -19 29 -5 0 5 -9 11 -21 14 -16 4 -18 3 -8 -9z"/>
<path d="M4065 4070 c3 -5 8 -10 11 -10 2 0 4 5 4 10 0 6 -5 10 -11 10 -5 0
-7 -4 -4 -10z"/>
<path d="M1626 4047 c3 -10 9 -15 12 -12 3 3 0 11 -7 18 -10 9 -11 8 -5 -6z"/>
<path d="M4020 4040 c0 -5 5 -10 11 -10 5 0 7 5 4 10 -3 6 -8 10 -11 10 -2 0
-4 -4 -4 -10z"/>
<path d="M4060 4032 c0 -7 -7 -12 -16 -12 -8 0 -12 -4 -9 -10 3 -5 10 -10 15
-10 10 0 22 31 15 38 -3 3 -5 0 -5 -6z"/>
<path d="M4020 3990 c0 -6 7 -10 15 -10 8 0 15 2 15 4 0 2 -7 6 -15 10 -8 3
-15 1 -15 -4z"/>
<path d="M3961 3695 c15 -16 69 -31 69 -19 0 3 -7 12 -15 20 -13 14 -15 14
-15 -1 0 -15 -1 -15 -16 -1 -8 9 -21 16 -27 16 -7 0 -5 -6 4 -15z"/>
<path d="M3070 3330 c0 -5 5 -10 11 -10 5 0 7 5 4 10 -3 6 -8 10 -11 10 -2 0
-4 -4 -4 -10z"/>
<path d="M2060 3289 c0 -5 5 -7 10 -4 6 3 10 8 10 11 0 2 -4 4 -10 4 -5 0 -10
-5 -10 -11z"/>
<path d="M2250 2880 c-8 -5 -11 -12 -8 -16 4 -3 14 1 23 10 18 17 9 21 -15 6z"/>
<path d="M1980 2850 c-8 -5 -12 -11 -10 -14 3 -2 14 2 24 10 22 15 10 19 -14
4z"/>
<path d="M1900 2815 c0 -8 5 -15 10 -15 6 0 10 7 10 15 0 8 -4 15 -10 15 -5 0
-10 -7 -10 -15z"/>
<path d="M1950 2791 l-24 -7 24 -17 c27 -19 45 -22 35 -8 -3 5 -1 12 5 16 6 4
8 11 5 16 -7 10 -9 10 -45 0z"/>
<path d="M2349 2756 c-1 -1 -3 -11 -4 -23 l-2 -22 31 21 c17 12 32 22 34 23 1
1 -11 2 -28 2 -16 0 -31 -1 -31 -1z"/>
<path d="M4130 2719 c0 -5 5 -7 10 -4 6 3 10 8 10 11 0 2 -4 4 -10 4 -5 0 -10
-5 -10 -11z"/>
<path d="M1860 2655 c-6 -8 -10 -20 -8 -26 2 -6 12 0 21 15 18 27 8 37 -13 11z"/>
<path d="M3140 2646 c0 -21 -27 -40 -33 -24 -3 7 -6 8 -6 2 -1 -15 30 -49 52
-57 9 -3 17 -11 17 -17 0 -6 -4 -9 -9 -6 -13 8 -23 -25 -12 -38 6 -7 10 -21 9
-31 -1 -30 21 -77 32 -70 5 3 10 0 10 -8 0 -21 37 -50 54 -44 12 5 14 15 9 38
l-6 31 29 -18 c15 -11 25 -14 21 -7 -9 14 2 45 14 37 5 -3 7 -9 4 -14 -6 -10
24 -24 48 -21 10 1 17 -4 17 -13 0 -9 -6 -16 -12 -16 -9 -1 -7 -5 3 -13 9 -7
19 -22 23 -35 4 -12 12 -22 18 -22 6 0 9 -3 6 -6 -4 -3 -17 0 -30 7 -19 10
-21 10 -12 -2 7 -8 8 -22 3 -34 -4 -11 -8 -15 -8 -10 -1 6 -5 4 -10 -4 -8 -13
-12 -13 -27 0 -16 12 -17 12 -11 -3 4 -12 2 -18 -8 -18 -8 0 -15 -4 -15 -10 0
-5 5 -10 11 -10 5 0 7 -5 4 -10 -8 -12 -35 12 -35 32 0 8 -3 9 -8 3 -4 -5 -14
-10 -22 -10 -20 0 -30 38 -12 45 10 4 6 10 -13 18 -14 7 -24 8 -21 3 7 -11
-17 -21 -47 -21 -14 0 -28 -11 -39 -30 -12 -21 -24 -29 -40 -27 -13 1 -22 -3
-21 -9 1 -5 -9 -23 -22 -40 -24 -29 -24 -29 -19 -4 5 23 5 24 -9 7 -14 -17
-16 -17 -25 -2 -7 14 -13 15 -31 6 -23 -13 -28 -3 -8 19 10 12 9 12 -6 0 -14
-10 -21 -10 -29 -2 -7 7 -22 12 -35 12 -13 0 -23 5 -23 11 0 16 -26 39 -35 31
-5 -4 -5 1 -2 11 8 22 2 22 -33 -5 l-29 -21 -21 24 c-19 21 -20 22 -16 4 5
-18 1 -20 -45 -21 -41 -1 -56 4 -79 26 -15 14 -32 24 -37 23 -5 -2 -10 11 -10
29 0 17 -5 34 -11 36 -6 2 -8 10 -5 19 5 12 3 14 -7 8 -8 -5 -23 -9 -34 -10
-31 -2 -89 -39 -102 -63 -6 -12 -14 -19 -17 -15 -4 3 -7 -2 -7 -13 0 -11 -10
-24 -22 -29 -12 -6 -24 -16 -26 -24 -3 -8 0 -11 7 -7 7 5 9 1 4 -11 -11 -32
-15 -35 -24 -22 -6 10 -9 8 -9 -8 0 -12 -5 -25 -10 -28 -6 -4 -8 -10 -5 -15
10 -16 -16 -22 -33 -8 -15 12 -16 11 -3 -5 12 -15 12 -19 -5 -32 -10 -8 -24
-15 -30 -15 -7 0 -14 -6 -17 -14 -3 -9 -14 -12 -25 -9 -15 4 -21 -2 -25 -26
-6 -31 -29 -42 -42 -20 -4 6 -13 8 -21 5 -9 -3 -11 0 -7 12 6 14 5 15 -10 2
-15 -14 -15 -16 4 -32 12 -10 26 -15 33 -12 6 3 1 -3 -12 -13 -22 -18 -29 -73
-9 -73 4 0 5 -5 2 -10 -4 -6 -11 -8 -16 -5 -5 4 -17 1 -26 -5 -16 -9 -15 -10
4 -5 18 5 22 3 17 -9 -4 -11 0 -13 17 -9 18 5 21 3 16 -10 -8 -20 29 -107 45
-107 9 0 9 -3 0 -12 -16 -16 -15 -31 1 -25 8 3 20 -3 27 -13 7 -10 19 -16 27
-13 9 4 16 -3 20 -16 3 -11 10 -18 17 -15 6 3 3 -1 -6 -9 -17 -13 -17 -15 0
-30 12 -11 22 -13 32 -7 13 9 7 14 -12 11 -7 -1 1 59 8 68 2 2 4 -10 4 -27 0
-27 3 -30 25 -26 17 3 23 0 20 -8 -6 -16 31 -42 40 -28 3 6 12 10 18 10 7 0 4
-7 -6 -14 -10 -8 -30 -13 -45 -11 -27 3 -52 -10 -52 -26 0 -5 5 -9 10 -9 6 0
10 7 10 16 0 12 3 14 13 6 15 -13 43 -10 59 6 7 7 18 12 24 12 7 0 14 10 16
23 4 32 39 33 78 1 30 -25 31 -29 14 -36 -14 -6 -11 -7 8 -3 24 5 28 1 34 -22
4 -16 11 -34 17 -41 14 -18 44 -15 56 5 9 17 11 16 28 -3 14 -17 34 -23 88
-28 39 -3 84 -9 100 -12 58 -11 116 -10 127 3 7 9 7 13 -1 13 -6 0 -11 7 -11
15 0 11 5 12 24 5 15 -5 37 -5 55 0 29 8 35 5 33 -20 0 -3 22 -6 49 -8 29 -1
49 2 49 9 0 5 6 7 12 3 19 -12 50 -12 75 -1 14 6 32 6 52 -1 21 -7 40 -7 66 1
28 8 41 8 56 -1 25 -16 29 -15 29 4 0 13 3 14 14 5 7 -6 22 -8 32 -4 18 6 18
6 0 -15 -11 -12 -25 -22 -33 -22 -14 0 -16 -7 -14 -55 0 -17 -2 -24 -6 -15 -3
8 -13 20 -22 26 -13 10 -13 14 -2 28 7 9 9 16 3 16 -5 0 -12 -7 -16 -15 -3 -8
-12 -15 -20 -15 -17 0 -26 -22 -19 -48 2 -11 -1 -23 -8 -27 -18 -12 -60 -15
-54 -4 4 5 -2 6 -11 2 -11 -4 -22 1 -30 12 -13 17 -14 17 -14 2 0 -9 -4 -17
-10 -17 -16 0 -12 -19 10 -43 11 -12 18 -27 16 -34 -3 -7 1 -10 10 -6 8 3 31
-3 52 -13 20 -10 40 -17 44 -16 4 1 4 -6 1 -15 -5 -13 2 -12 35 7 39 22 46 32
43 70 0 10 1 11 5 3 11 -24 24 -13 19 15 -3 15 -2 21 1 15 8 -18 24 -16 24 2
0 8 -4 15 -9 15 -6 0 -7 16 -4 35 5 34 -9 50 -20 23 -3 -7 -6 -3 -6 10 -1 18
3 22 18 17 13 -4 20 0 24 16 4 16 10 19 28 14 22 -7 22 -7 6 9 -15 15 -15 19
-3 32 8 8 19 14 25 14 5 0 12 4 15 9 3 5 -15 3 -41 -5 -38 -12 -49 -12 -60 -2
-8 9 -9 18 -3 28 7 10 10 11 10 3 0 -7 7 -13 16 -13 9 0 14 8 13 18 -4 43 1
53 22 47 13 -4 27 0 40 11 10 9 19 13 19 8 0 -16 -23 -34 -44 -35 -13 0 -16
-3 -8 -6 8 -3 24 0 37 7 13 7 31 10 39 7 21 -8 46 2 46 19 0 8 5 14 11 14 5 0
7 5 3 11 -4 7 -1 10 7 7 22 -7 38 14 27 35 -8 16 -7 18 9 13 10 -3 25 -1 33 4
8 5 11 10 5 11 -5 1 -16 2 -22 3 -7 0 -12 6 -10 11 1 6 19 10 40 9 28 0 36 3
32 14 -3 7 -5 22 -5 33 0 11 -7 19 -16 19 -10 0 -14 -6 -11 -14 4 -9 0 -12
-13 -9 -21 6 -23 40 -3 47 7 3 13 1 13 -4 0 -6 4 -10 9 -10 4 0 6 12 3 27 -5
26 -4 27 12 10 10 -9 19 -17 21 -17 7 0 -1 36 -10 43 -6 4 0 10 13 13 17 5 20
9 11 15 -8 4 -10 11 -6 16 11 10 28 -19 22 -36 -3 -8 -1 -17 5 -21 15 -9 1
-40 -19 -40 -10 0 -12 -3 -5 -8 6 -4 14 -18 18 -32 6 -19 5 -22 -3 -10 -10 13
-12 13 -20 0 -6 -9 -6 -17 0 -21 5 -3 6 -14 2 -25 -6 -17 -5 -18 13 -4 10 8
25 23 32 33 17 22 48 22 56 0 6 -15 8 -15 16 -3 6 9 4 20 -5 30 -11 13 -11 18
0 34 8 10 19 15 25 11 9 -6 9 -2 1 12 -11 23 -6 34 13 27 21 -8 37 21 28 46
-6 17 -11 20 -17 11 -4 -8 -2 -16 4 -21 9 -5 8 -10 -2 -19 -22 -17 -42 11 -28
38 11 21 0 38 -18 27 -5 -4 -7 3 -4 14 4 16 2 19 -12 14 -11 -5 -16 -2 -14 7
6 42 -39 128 -60 115 -5 -3 -7 3 -4 14 3 12 0 20 -8 20 -7 0 -10 -3 -6 -6 5
-6 -16 -34 -25 -34 -2 0 -4 9 -5 20 -1 11 2 18 8 15 21 -13 7 18 -18 41 -19
17 -24 27 -16 30 25 10 -5 45 -33 40 -23 -4 -24 -3 -12 11 7 10 8 14 1 10 -16
-10 -44 3 -36 16 3 6 1 7 -5 3 -7 -4 -27 9 -46 29 -37 37 -60 46 -49 18 5 -14
1 -13 -24 5 -17 12 -36 22 -42 22 -6 0 -11 4 -11 9 0 5 -9 7 -19 4 -22 -6 -45
28 -39 56 2 9 -4 24 -14 34 -10 9 -18 14 -18 10 0 -3 -16 10 -35 30 -19 20
-35 31 -35 25 0 -7 -6 -3 -14 8 -8 10 -18 19 -23 19 -25 1 -54 28 -48 45 5 14
2 17 -13 13 -14 -3 -26 5 -41 25 -11 17 -21 35 -21 41 0 6 -7 11 -15 11 -8 0
-15 -6 -15 -14z m39 -60 c10 -12 8 -13 -8 -9 -12 3 -21 9 -21 14 0 14 16 11
29 -5z m175 -135 c4 -5 -3 -7 -14 -4 -23 6 -26 13 -6 13 8 0 17 -4 20 -9z
m166 -167 c0 -15 6 -24 15 -24 8 0 15 -7 15 -15 0 -8 5 -15 11 -15 18 0 79
-47 71 -55 -4 -4 1 -5 11 -2 16 6 22 -3 18 -27 -1 -4 3 -14 9 -21 17 -21 -7
-29 -32 -11 -27 19 -48 21 -48 3 0 -7 12 -13 28 -12 22 0 28 -5 30 -27 4 -33
-11 -36 -35 -8 -10 11 -21 20 -26 20 -5 0 -7 -9 -4 -20 4 -15 0 -20 -13 -20
-14 0 -17 5 -12 22 3 13 1 19 -5 15 -6 -4 -10 7 -11 25 -1 41 -18 58 -34 35
-11 -15 -13 -10 -15 29 -1 25 -7 52 -14 60 -8 10 -8 14 0 14 6 0 11 7 11 15 0
8 6 15 13 15 6 0 4 5 -5 11 -24 14 -23 28 2 22 13 -3 20 -14 20 -29z m-966
-73 c3 -4 3 -11 0 -14 -8 -8 -34 3 -34 14 0 11 27 12 34 0z m16 -41 c0 -5 -6
-10 -12 -10 -10 0 -10 -2 0 -9 8 -4 13 -11 13 -15 -5 -35 1 -47 22 -46 42 4
64 -10 61 -36 -2 -18 3 -24 16 -24 10 0 22 -5 25 -10 4 -6 11 -8 16 -5 5 3 6
-2 2 -11 -4 -11 -3 -15 5 -10 6 3 14 1 17 -5 4 -5 13 -8 21 -5 7 3 16 1 19 -5
4 -5 14 -8 22 -7 24 4 27 -19 3 -25 -11 -3 -20 -10 -20 -17 0 -6 4 -9 9 -5 5
3 12 1 16 -5 3 -5 19 -7 36 -3 24 5 28 3 23 -11 -3 -9 -11 -16 -17 -16 -6 0
-1 -9 11 -20 12 -12 22 -26 22 -33 0 -9 2 -9 8 1 7 10 15 10 36 2 21 -8 28 -7
32 5 4 8 12 15 20 15 17 0 18 -16 2 -24 -7 -3 -3 -3 9 0 19 4 22 2 17 -13 -5
-17 -5 -17 10 1 8 10 20 15 27 10 8 -5 11 -2 7 8 -5 11 1 15 23 15 17 0 26 -3
21 -6 -15 -11 -22 -42 -13 -59 8 -15 2 -17 -47 -17 -45 0 -62 5 -78 21 -14 14
-26 19 -40 14 -27 -10 -75 -4 -84 10 -5 9 -9 9 -14 1 -15 -24 -44 -31 -60 -15
-10 10 -16 11 -16 3 0 -8 -4 -8 -15 1 -9 8 -13 21 -9 32 5 17 3 18 -15 9 -11
-6 -25 -19 -31 -29 -10 -15 -11 -14 -6 6 4 22 4 23 -20 7 -20 -13 -27 -13 -44
-3 -11 7 -20 19 -20 27 0 10 -3 11 -14 2 -10 -8 -22 -7 -50 4 -28 12 -41 13
-51 5 -10 -8 -15 -8 -20 0 -4 6 -14 9 -23 5 -10 -4 -23 2 -33 17 l-18 23 -25
-24 c-14 -14 -30 -20 -37 -16 -8 5 -10 4 -5 -3 10 -17 -3 -15 -20 3 -9 8 -20
15 -25 15 -6 0 -3 -7 6 -16 9 -9 13 -19 10 -23 -9 -8 -36 30 -29 41 3 5 13 7
21 4 11 -5 14 -1 10 13 -3 14 2 21 19 25 13 4 38 22 56 41 17 19 40 35 51 35
15 0 17 3 9 13 -8 10 -6 17 8 27 10 7 17 17 15 21 -3 4 2 12 10 19 10 9 15 9
15 1 0 -6 5 -11 10 -11 6 0 8 11 4 26 -6 24 -5 26 16 19 16 -5 21 -4 18 6 -3
8 -13 14 -23 14 -10 0 -20 6 -23 13 -3 9 4 11 25 6 15 -4 30 -8 32 -10 2 -2
10 3 18 11 17 17 33 19 33 5z m1166 -41 c19 -22 19 -22 -3 -8 -13 8 -23 17
-23 21 0 12 6 9 26 -13z m-1305 -32 c-10 -9 -11 -8 -5 6 3 10 9 15 12 12 3 -3
0 -11 -7 -18z m1404 -47 c3 -5 1 -10 -4 -10 -6 0 -11 5 -11 10 0 6 2 10 4 10
3 0 8 -4 11 -10z m-1075 -26 c0 -20 -7 -17 -20 6 -9 16 -8 18 5 14 8 -4 15
-12 15 -20z m883 -11 c4 -2 7 -9 7 -14 0 -12 -42 -1 -51 14 -4 5 -12 6 -18 3
-6 -4 -11 -2 -11 4 0 11 51 6 73 -7z m217 -13 c0 -5 -5 -10 -11 -10 -5 0 -7 5
-4 10 3 6 8 10 11 10 2 0 4 -4 4 -10z m-301 -47 c1 -7 -3 -13 -8 -13 -10 0
-21 47 -12 55 6 6 19 -21 20 -42z m-36 7 c3 -11 1 -20 -4 -20 -5 0 -9 2 -9 4
0 2 -3 11 -6 20 -3 9 -2 16 4 16 5 0 12 -9 15 -20z m141 -8 c-4 -11 -3 -13 3
-5 8 12 67 12 79 0 8 -8 -7 -13 -58 -22 -29 -4 -36 -9 -32 -23 4 -12 2 -11 -7
3 -7 11 -15 22 -18 25 -13 11 -10 29 5 23 8 -3 14 -2 13 3 -3 18 1 25 11 19 5
-3 7 -13 4 -23z m-469 8 c3 -5 -1 -10 -9 -10 -9 0 -16 5 -16 10 0 6 4 10 9 10
6 0 13 -4 16 -10z m397 -4 c7 4 8 2 4 -4 -11 -18 -26 -14 -25 6 0 10 3 12 6 4
2 -6 10 -9 15 -6z m-322 -10 c0 -3 -4 -8 -10 -11 -5 -3 -10 -1 -10 4 0 6 5 11
10 11 6 0 10 -2 10 -4z m3 -64 c-3 -9 -10 -23 -16 -29 -7 -9 -5 -13 6 -13 8 0
18 -7 21 -16 4 -12 2 -15 -9 -10 -8 3 -15 1 -15 -3 0 -5 -13 -14 -30 -20 -22
-7 -30 -7 -30 2 0 8 -3 8 -8 2 -12 -16 -31 -16 -62 0 -31 16 -37 29 -20 40 6
3 10 1 10 -4 0 -19 18 -12 25 9 3 11 11 20 17 20 7 0 7 -4 0 -12 -17 -22 10
-39 39 -24 18 9 23 18 21 39 -3 21 2 29 20 36 29 11 39 5 31 -17z m125 1 c-17
-17 -48 -12 -48 8 0 8 5 7 16 -2 15 -12 18 -11 28 3 5 9 12 15 15 12 3 -2 -2
-12 -11 -21z m144 -5 c-7 -7 -12 -8 -12 -2 0 14 12 26 19 19 2 -3 -1 -11 -7
-17z m-177 -58 c3 -5 1 -10 -4 -10 -6 0 -11 5 -11 10 0 6 2 10 4 10 3 0 8 -4
11 -10z m-1195 -29 c0 -6 -4 -13 -10 -16 -5 -3 -10 1 -10 9 0 9 5 16 10 16 6
0 10 -4 10 -9z m1120 -5 c0 -2 -7 -9 -15 -16 -13 -11 -14 -10 -9 4 5 14 24 23
24 12z m-1077 -62 c-5 -13 -7 -13 -14 -2 -7 11 -11 10 -19 -2 -5 -8 -10 -10
-10 -4 0 16 11 24 31 24 13 0 16 -5 12 -16z m755 -54 c14 -56 0 -70 -76 -77
-54 -5 -62 -4 -62 12 0 12 -5 15 -16 11 -42 -16 -61 -16 -73 -2 -8 9 -9 16 -4
16 5 0 9 14 8 32 0 41 15 45 53 13 23 -19 31 -22 35 -11 3 7 17 14 31 14 14 0
36 7 48 15 35 24 45 20 56 -23z m162 11 c17 -43 10 -86 -15 -84 -11 1 -39 3
-63 4 -23 2 -47 8 -53 15 -24 30 39 82 82 69 13 -4 19 -1 19 9 0 26 17 18 30
-13z m85 10 c-3 -11 1 -26 12 -37 16 -16 17 -17 1 -11 -10 3 -20 2 -23 -3 -4
-6 -15 -10 -26 -10 -30 0 -24 42 9 62 35 21 34 21 27 -1z m-425 -174 c30 -7
38 -12 24 -15 -11 -1 -43 6 -70 18 -27 11 -38 18 -24 15 14 -4 45 -12 70 -18z
m625 -13 c-9 -9 -19 -13 -23 -10 -3 4 0 11 8 16 24 15 33 11 15 -6z m-320 -4
c-3 -5 -16 -10 -28 -9 -21 0 -21 1 -2 9 28 12 37 12 30 0z m165 -191 c0 -4 -7
-6 -15 -3 -8 4 -15 10 -15 15 0 4 7 6 15 3 8 -4 15 -10 15 -15z m50 -49 c0 -5
-4 -10 -9 -10 -6 0 -13 5 -16 10 -3 6 1 10 9 10 9 0 16 -4 16 -10z"/>
<path d="M3512 2186 c7 -8 15 -12 17 -11 5 6 -10 25 -20 25 -5 0 -4 -6 3 -14z"/>
<path d="M2610 2081 c0 -5 5 -13 10 -16 6 -3 10 -2 10 4 0 5 -4 13 -10 16 -5
3 -10 2 -10 -4z"/>
<path d="M2410 1904 c0 -8 5 -12 10 -9 6 3 10 10 10 16 0 5 -4 9 -10 9 -5 0
-10 -7 -10 -16z"/>
<path d="M2754 1895 c-9 -23 5 -38 23 -23 9 7 18 12 20 11 14 -11 23 -1 12 13
-12 14 -14 14 -25 0 -14 -20 -25 -21 -18 -1 4 8 3 15 0 15 -4 0 -9 -7 -12 -15z"/>
<path d="M2535 1880 c3 -5 8 -10 11 -10 2 0 4 5 4 10 0 6 -5 10 -11 10 -5 0
-7 -4 -4 -10z"/>
<path d="M2614 1859 c0 -10 4 -19 8 -19 4 0 8 6 8 14 0 8 -4 17 -8 20 -4 2 -8
-4 -8 -15z"/>
<path d="M3150 1800 c0 -5 5 -10 11 -10 5 0 7 5 4 10 -3 6 -8 10 -11 10 -2 0
-4 -4 -4 -10z"/>
<path d="M4030 2640 c-8 -5 -11 -12 -8 -15 4 -4 17 0 30 9 24 17 5 23 -22 6z"/>
<path d="M2046 2629 c3 -6 0 -15 -7 -21 -11 -7 -9 -8 6 -6 12 2 19 -2 17 -10
-1 -8 2 -11 7 -8 4 3 9 17 9 31 0 18 -6 25 -20 25 -11 0 -16 -4 -12 -11z"/>
<path d="M1730 2620 c0 -5 5 -10 11 -10 5 0 7 5 4 10 -3 6 -8 10 -11 10 -2 0
-4 -4 -4 -10z"/>
<path d="M3210 2615 c0 -8 2 -15 4 -15 2 0 6 7 10 15 3 8 1 15 -4 15 -6 0 -10
-7 -10 -15z"/>
<path d="M1533 2575 c2 -5 9 -10 15 -10 5 0 14 -3 18 -7 4 -5 0 -8 -9 -8 -9 0
-17 -7 -17 -15 0 -12 4 -13 19 -3 27 16 22 53 -6 53 -13 0 -21 -4 -20 -10z"/>
<path d="M1707 2576 c-4 -10 -1 -13 9 -9 15 6 19 23 5 23 -5 0 -11 -7 -14 -14z"/>
<path d="M4011 2573 c-1 -12 4 -25 9 -28 12 -7 12 2 0 30 -8 19 -9 19 -9 -2z"/>
<path d="M3870 2549 c0 -5 5 -7 10 -4 6 3 10 8 10 11 0 2 -4 4 -10 4 -5 0 -10
-5 -10 -11z"/>
<path d="M2575 2540 c3 -5 8 -10 11 -10 2 0 4 5 4 10 0 6 -5 10 -11 10 -5 0
-7 -4 -4 -10z"/>
<path d="M1561 2516 c-10 -12 -8 -13 8 -9 12 3 18 9 15 14 -7 12 -10 11 -23
-5z"/>
<path d="M4010 2520 c0 -5 5 -10 11 -10 5 0 7 5 4 10 -3 6 -8 10 -11 10 -2 0
-4 -4 -4 -10z"/>
<path d="M3136 2434 c-8 -21 -4 -25 14 -14 11 7 12 12 4 20 -8 8 -13 7 -18 -6z"/>
<path d="M1647 2389 c4 -13 8 -18 11 -10 2 7 -1 18 -6 23 -8 8 -9 4 -5 -13z"/>
<path d="M3450 2384 c0 -8 5 -12 10 -9 6 3 10 10 10 16 0 5 -4 9 -10 9 -5 0
-10 -7 -10 -16z"/>
<path d="M3170 2380 c0 -5 5 -10 10 -10 6 0 10 5 10 10 0 6 -4 10 -10 10 -5 0
-10 -4 -10 -10z"/>
<path d="M1638 2353 c6 -2 12 -11 12 -19 0 -14 12 -19 23 -8 8 9 -18 34 -35
33 -10 0 -10 -2 0 -6z"/>
<path d="M3209 2332 c12 -23 41 -48 41 -35 0 10 -37 53 -46 53 -2 0 0 -8 5
-18z"/>
<path d="M3170 2334 c0 -17 17 -36 24 -26 3 5 -1 15 -9 22 -8 7 -15 9 -15 4z"/>
<path d="M4170 2319 c0 -5 5 -7 10 -4 6 3 10 8 10 11 0 2 -4 4 -10 4 -5 0 -10
-5 -10 -11z"/>
<path d="M1656 2288 c3 -5 10 -6 15 -3 13 9 11 12 -6 12 -8 0 -12 -4 -9 -9z"/>
<path d="M1652 2259 c2 -7 10 -15 17 -17 8 -3 12 1 9 9 -2 7 -10 15 -17 17 -8
3 -12 -1 -9 -9z"/>
<path d="M3265 2259 c-11 -16 -1 -19 13 -3 7 8 8 14 3 14 -5 0 -13 -5 -16 -11z"/>
<path d="M1660 2210 c0 -5 5 -10 11 -10 5 0 7 5 4 10 -3 6 -8 10 -11 10 -2 0
-4 -4 -4 -10z"/>
<path d="M1880 2160 c0 -6 7 -10 15 -10 8 0 15 2 15 4 0 2 -7 6 -15 10 -8 3
-15 1 -15 -4z"/>
<path d="M3995 2160 c-3 -5 -4 -10 -1 -10 2 0 12 -3 20 -6 12 -5 15 -2 10 10
-7 18 -20 21 -29 6z"/>
<path d="M2216 2143 c-4 -9 -2 -21 4 -27 7 -7 10 -2 10 17 0 31 -5 34 -14 10z"/>
<path d="M4050 2140 c-13 -8 -12 -10 3 -10 9 0 17 5 17 10 0 12 -1 12 -20 0z"/>
<path d="M4047 2099 c7 -7 15 -10 18 -7 3 3 -2 9 -12 12 -14 6 -15 5 -6 -5z"/>
<path d="M2040 1960 c0 -5 5 -10 11 -10 5 0 7 5 4 10 -3 6 -8 10 -11 10 -2 0
-4 -4 -4 -10z"/>
<path d="M3995 1880 c3 -5 11 -10 16 -10 6 0 7 5 4 10 -3 6 -11 10 -16 10 -6
0 -7 -4 -4 -10z"/>
<path d="M2018 1833 c7 -3 16 -2 19 1 4 3 -2 6 -13 5 -11 0 -14 -3 -6 -6z"/>
<path d="M3975 1830 c3 -5 8 -10 11 -10 2 0 4 5 4 10 0 6 -5 10 -11 10 -5 0
-7 -4 -4 -10z"/>
<path d="M4000 1820 c0 -5 7 -10 16 -10 8 0 12 -4 9 -10 -3 -5 -2 -10 3 -10
17 0 21 13 7 26 -16 16 -35 18 -35 4z"/>
<path d="M1991 1748 c-1 -16 4 -28 9 -28 12 0 12 8 0 35 -8 18 -9 17 -9 -7z"/>
<path d="M3962 1727 c-8 -10 -6 -13 9 -13 20 0 25 11 10 20 -5 3 -13 0 -19 -7z"/>
<path d="M2450 1580 c-13 -8 -12 -10 3 -10 9 0 17 5 17 10 0 12 -1 12 -20 0z"/>
<path d="M2432 1540 c-17 -28 -15 -47 4 -24 15 19 15 18 11 -3 -3 -13 -1 -25
4 -28 4 -3 6 -13 3 -23 -5 -15 -4 -15 9 1 13 16 13 22 2 44 -7 14 -11 32 -8
39 8 21 -11 17 -25 -6z"/>
<path d="M2480 1526 c0 -2 7 -7 16 -10 8 -3 12 -2 9 4 -6 10 -25 14 -25 6z"/>
<path d="M2486 1447 c-17 -12 -16 -14 13 -14 24 0 28 3 20 14 -6 7 -12 13 -13
13 -1 0 -10 -6 -20 -13z"/>
<path d="M3896 1445 c-3 -8 -1 -15 4 -15 6 0 10 7 10 15 0 8 -2 15 -4 15 -2 0
-6 -7 -10 -15z"/>
<path d="M2997 1432 c-9 -2 -15 -7 -12 -12 3 -5 1 -11 -5 -15 -16 -10 -12 -22
10 -28 11 -3 20 -1 20 4 0 15 15 10 38 -11 25 -24 40 -27 21 -4 -7 9 -9 18 -3
22 5 4 10 13 12 21 2 11 -2 11 -22 -2 -23 -16 -25 -15 -33 6 -5 14 -14 21 -26
19z"/>
<path d="M2477 1414 c-9 -9 20 -54 45 -72 26 -19 23 -35 -4 -21 -22 11 -22 11
-8 -6 8 -10 14 -26 12 -37 -2 -10 2 -18 7 -18 6 0 11 9 11 20 0 25 17 27 22 3
4 -23 -21 -53 -44 -53 -9 0 -20 -4 -23 -10 -12 -19 35 -10 52 10 19 22 23 23
41 12 7 -5 10 -16 6 -25 -4 -12 -14 -15 -34 -11 -15 4 -31 1 -34 -5 -4 -6 -16
-11 -27 -11 -20 0 -20 -1 3 -29 13 -16 32 -31 43 -33 12 -2 19 -10 19 -21 -2
-23 12 -22 19 3 3 10 0 21 -7 24 -6 3 0 3 13 0 20 -5 23 -3 17 11 -3 10 2 27
13 41 l19 24 4 -30 c3 -17 0 -30 -6 -30 -6 0 -3 -7 7 -14 10 -8 15 -20 11 -30
-7 -19 0 -20 27 -6 10 6 19 18 19 28 0 12 3 14 8 4 6 -9 14 -6 29 12 11 13 27
26 34 28 7 2 9 9 5 17 -7 10 -10 10 -16 1 -9 -15 -33 -3 -27 13 2 7 -5 19 -15
29 -11 9 -15 19 -9 22 15 10 1 38 -15 32 -8 -3 -14 -1 -14 4 0 5 -9 12 -20 15
-11 4 -17 11 -14 17 5 7 1 9 -9 5 -12 -4 -14 -2 -10 10 5 12 2 15 -10 10 -9
-3 -17 -2 -17 3 0 6 9 10 21 10 11 0 17 5 14 10 -4 6 -12 9 -18 8 -7 -1 -23 4
-36 11 -21 12 -23 11 -18 -3 3 -8 1 -18 -5 -22 -7 -5 -8 -2 -3 6 6 10 2 11
-19 6 -15 -4 -27 -2 -27 4 -1 5 -2 15 -3 22 -1 14 -20 21 -29 12z m241 -222
c2 -7 -2 -10 -12 -6 -9 3 -16 11 -16 16 0 13 23 5 28 -10z"/>
<path d="M2775 1409 c-3 -4 1 -9 9 -12 14 -6 26 0 26 13 0 9 -30 9 -35 -1z"/>
<path d="M3525 1410 c-4 -6 -2 -17 4 -23 15 -15 25 -2 13 19 -7 12 -11 13 -17
4z"/>
<path d="M3605 1399 c-4 -6 -5 -12 -2 -15 2 -3 7 2 10 11 7 17 1 20 -8 4z"/>
<path d="M2905 1380 c3 -5 8 -10 11 -10 2 0 4 5 4 10 0 6 -5 10 -11 10 -5 0
-7 -4 -4 -10z"/>
<path d="M3314 1376 c-4 -10 -13 -15 -22 -11 -12 4 -13 3 -2 -10 17 -21 27
-19 33 7 7 27 0 38 -9 14z"/>
<path d="M3500 1365 c7 -9 15 -13 17 -11 7 7 -7 26 -19 26 -6 0 -6 -6 2 -15z"/>
<path d="M3656 1354 c-17 -17 -21 -29 -7 -20 4 3 17 -1 27 -9 25 -19 35 -19
28 0 -4 8 -13 15 -21 15 -9 0 -13 6 -9 15 7 19 1 19 -18 -1z"/>
<path d="M3025 1350 c-3 -6 1 -7 9 -4 18 7 21 14 7 14 -6 0 -13 -4 -16 -10z"/>
<path d="M2398 1338 c5 -5 16 -8 23 -6 8 3 3 7 -10 11 -17 4 -21 3 -13 -5z"/>
<path d="M3088 1339 c-6 -4 -17 -5 -23 -2 -7 2 -19 -2 -26 -9 -30 -30 -72 -31
-48 -1 15 17 9 16 -29 -3 -32 -16 -46 -41 -16 -30 11 4 14 0 12 -17 -2 -13 2
-21 10 -19 6 1 12 -3 12 -9 0 -5 5 -7 11 -3 8 4 9 0 4 -15 -5 -16 -2 -21 12
-21 11 0 24 -5 31 -12 6 -6 15 -9 19 -5 3 4 0 13 -9 20 -9 6 -19 25 -22 41
l-7 28 27 -21 c32 -25 56 -28 47 -5 -4 12 0 15 17 12 18 -2 25 3 31 25 5 18 3
27 -4 27 -7 0 -6 4 2 9 8 5 20 7 28 4 7 -3 13 -1 13 5 0 10 -75 11 -92 1z m32
-29 c0 -5 -7 -10 -15 -10 -8 0 -15 -6 -15 -14 0 -22 -29 -27 -39 -7 -7 12 -6
22 1 29 15 15 68 16 68 2z"/>
<path d="M2825 1330 c3 -5 8 -10 11 -10 2 0 4 5 4 10 0 6 -5 10 -11 10 -5 0
-7 -4 -4 -10z"/>
<path d="M2715 1320 c-3 -6 3 -22 13 -38 11 -15 20 -30 21 -34 4 -24 15 -37
32 -41 10 -3 19 -1 19 4 0 5 -4 9 -10 9 -5 0 -10 5 -10 11 0 8 4 8 14 0 7 -6
21 -8 30 -5 10 4 24 -2 36 -16 l19 -22 -3 24 c-1 13 -6 29 -10 36 -4 7 -3 12
3 12 5 0 12 -6 14 -12 8 -18 28 13 22 31 -3 8 0 18 6 22 13 8 3 29 -14 29 -8
0 -8 -3 2 -9 11 -7 11 -10 0 -17 -8 -5 -18 -9 -24 -9 -5 -1 -9 -6 -7 -13 3
-19 -9 -14 -34 13 -23 25 -54 34 -54 14 0 -5 5 -7 10 -4 6 3 17 0 25 -9 9 -9
11 -17 5 -21 -5 -3 -10 -2 -10 2 0 5 -13 14 -30 20 -16 6 -30 7 -30 2 0 -5 -4
-9 -10 -9 -14 0 -12 27 3 33 7 3 6 6 -5 6 -9 1 -20 -4 -23 -9z"/>
<path d="M3500 1320 c-8 -5 -11 -12 -7 -16 4 -4 13 -2 19 4 15 15 7 24 -12 12z"/>
<path d="M3565 1309 c-11 -16 -1 -19 13 -3 7 8 8 14 3 14 -5 0 -13 -5 -16 -11z"/>
<path d="M3165 1300 c-3 -6 1 -7 9 -4 18 7 21 14 7 14 -6 0 -13 -4 -16 -10z"/>
<path d="M3535 1300 c-3 -5 -1 -10 4 -10 6 0 11 5 11 10 0 6 -2 10 -4 10 -3 0
-8 -4 -11 -10z"/>
<path d="M3775 1281 c-3 -5 -1 -12 5 -16 5 -3 10 1 10 9 0 18 -6 21 -15 7z"/>
<path d="M2931 1239 c5 -10 16 -19 24 -19 20 0 8 27 -16 33 -16 4 -17 2 -8
-14z"/>
<path d="M3180 1245 c0 -8 2 -15 4 -15 2 0 6 7 10 15 3 8 1 15 -4 15 -6 0 -10
-7 -10 -15z"/>
<path d="M2910 1199 c0 -5 5 -7 10 -4 6 3 10 8 10 11 0 2 -4 4 -10 4 -5 0 -10
-5 -10 -11z"/>
<path d="M3164 1184 c-4 -10 -9 -22 -11 -26 -2 -5 0 -8 5 -8 10 0 24 41 17 48
-3 3 -8 -4 -11 -14z"/>
<path d="M3278 1186 c3 -5 -5 -7 -16 -4 -15 4 -25 0 -32 -10 -6 -11 -9 -12
-10 -4 0 7 -5 10 -11 7 -6 -4 -8 -14 -5 -22 4 -10 2 -13 -8 -10 -10 4 -13 1
-9 -9 4 -11 15 -15 35 -12 16 3 31 1 34 -4 9 -14 40 -9 65 13 22 19 24 19 30
2 5 -16 7 -16 17 4 13 23 16 51 5 40 -3 -4 -13 -1 -21 6 -17 14 -83 17 -74 3z
m0 -51 c-3 -3 -9 2 -12 12 -6 14 -5 15 5 6 7 -7 10 -15 7 -18z"/>
<path d="M2933 1154 c-3 -8 -2 -19 3 -24 5 -5 10 1 10 16 2 27 -4 31 -13 8z"/>
<path d="M3030 1151 c0 -6 7 -8 15 -5 8 4 15 1 15 -5 0 -15 -43 -31 -80 -31
-16 0 -32 -5 -36 -11 -7 -11 52 -9 156 6 14 2 37 4 53 4 15 1 27 4 27 9 0 4
-26 6 -59 6 -48 -1 -58 1 -57 14 0 9 -7 18 -16 20 -10 2 -18 -1 -18 -7z"/>
<path d="M3513 1130 c5 -40 10 -43 23 -16 9 19 7 25 -8 35 -16 10 -17 8 -15
-19z"/>
<path d="M2890 1090 c9 -16 13 -18 24 -8 12 11 11 14 -3 20 -27 11 -32 9 -21
-12z"/>
<path d="M3322 1099 c2 -7 10 -15 17 -17 8 -3 12 1 9 9 -2 7 -10 15 -17 17 -8
3 -12 -1 -9 -9z"/>
<path d="M3385 890 c3 -5 8 -10 11 -10 2 0 4 5 4 10 0 6 -5 10 -11 10 -5 0 -7
-4 -4 -10z"/>
<path d="M3220 730 c-8 -5 -11 -12 -8 -16 4 -3 14 1 23 10 18 17 9 21 -15 6z"/>
<path d="M3780 2865 c-7 -8 -8 -15 -2 -15 5 0 15 7 22 15 7 8 8 15 2 15 -5 0
-15 -7 -22 -15z"/>
<path d="M4040 2785 c-8 -9 -8 -15 -2 -15 12 0 26 19 19 26 -2 2 -10 -2 -17
-11z"/>
<path d="M4530 4581 c0 -6 4 -13 10 -16 6 -3 7 1 4 9 -7 18 -14 21 -14 7z"/>
<path d="M1351 2353 c0 -5 4 -17 9 -28 8 -18 9 -17 9 8 1 15 -3 27 -9 27 -5 0
-10 -3 -9 -7z"/>
<path d="M4238 1203 c7 -3 16 -2 19 1 4 3 -2 6 -13 5 -11 0 -14 -3 -6 -6z"/>
<path d="M4776 245 c-15 -13 -25 -29 -21 -34 3 -7 0 -8 -10 -5 -11 5 -14 2 -9
-11 5 -11 1 -21 -9 -27 -10 -5 -17 -14 -17 -19 0 -6 5 -7 10 -4 6 3 10 -1 10
-9 0 -9 -3 -16 -7 -16 -5 0 -9 -11 -9 -25 l-2 -25 18 23 c28 36 72 118 66 124
-3 3 -1 14 5 25 16 29 7 30 -25 3z"/>
<path d="M4701 224 c0 -11 3 -14 6 -6 3 7 2 16 -1 19 -3 4 -6 -2 -5 -13z"/>
<path d="M4675 150 c-3 -5 1 -10 9 -10 9 0 16 5 16 10 0 6 -4 10 -9 10 -6 0
-13 -4 -16 -10z"/>
<path d="M3040 133 c0 -5 12 -16 26 -26 38 -28 75 -7 39 23 -10 9 -15 9 -15 1
0 -6 -7 -11 -15 -11 -8 0 -15 5 -15 10 0 6 -4 10 -10 10 -5 0 -10 -3 -10 -7z"/>
<path d="M4670 100 c0 -5 5 -10 10 -10 6 0 10 5 10 10 0 6 -4 10 -10 10 -5 0
-10 -4 -10 -10z"/>
<path d="M3070 60 c-11 -7 -12 -12 -4 -20 8 -8 13 -6 17 9 3 12 4 21 4 21 -1
0 -9 -5 -17 -10z"/>
</g>
</svg>
